# Blender 4.5.3 LTS
# www.blender.org
mtllib coin.mtl
o Coin04
v 0.000000 -0.081725 -0.439310
v 0.160927 -0.081725 -0.407299
v 0.297355 -0.081725 -0.316142
v 0.388512 -0.081725 -0.179714
v 0.420523 -0.081725 -0.018787
v 0.388512 -0.081725 0.142140
v 0.297355 -0.081725 0.278568
v 0.160927 -0.081725 0.369726
v 0.000000 -0.081725 0.401736
v -0.160927 -0.081725 0.369726
v -0.297355 -0.081725 0.278568
v -0.388512 -0.081725 0.142140
v -0.420523 -0.081725 -0.018787
v -0.388512 -0.081725 -0.179714
v -0.297355 -0.081725 -0.316142
v -0.160927 -0.081725 -0.407299
v 0.000000 -0.081725 -0.391451
v 0.142612 -0.081725 -0.363084
v 0.263513 -0.081725 -0.282300
v 0.344297 -0.081725 -0.161399
v 0.372664 -0.081725 -0.018787
v 0.344297 -0.081725 0.123825
v 0.263513 -0.081725 0.244726
v 0.142612 -0.081725 0.325510
v 0.000000 -0.081725 0.353877
v -0.142612 -0.081725 0.325510
v -0.263513 -0.081725 0.244726
v -0.344297 -0.081725 0.123825
v -0.372664 -0.081725 -0.018787
v -0.344297 -0.081725 -0.161399
v -0.263513 -0.081725 -0.282300
v -0.142612 -0.081725 -0.363084
v 0.000000 -0.046425 -0.391451
v 0.142612 -0.046425 -0.363084
v 0.263513 -0.046425 -0.282300
v 0.344297 -0.046425 -0.161399
v 0.372664 -0.046425 -0.018787
v 0.344297 -0.046425 0.123825
v 0.263513 -0.046425 0.244726
v 0.142612 -0.046425 0.325510
v 0.000000 -0.046425 0.353877
v -0.142612 -0.046425 0.325510
v -0.263513 -0.046425 0.244726
v -0.344297 -0.046425 0.123825
v -0.372664 -0.046425 -0.018787
v -0.344297 -0.046425 -0.161399
v -0.263513 -0.046425 -0.282300
v -0.142612 -0.046425 -0.363084
v 0.000000 0.085692 -0.439310
v 0.160927 0.085692 -0.407299
v 0.297355 0.085692 -0.316142
v 0.388512 0.085692 -0.179714
v 0.420523 0.085692 -0.018787
v 0.388512 0.085692 0.142140
v 0.297355 0.085692 0.278568
v 0.160927 0.085692 0.369726
v 0.000000 0.085692 0.401736
v -0.160927 0.085692 0.369726
v -0.297355 0.085692 0.278568
v -0.388512 0.085692 0.142140
v -0.420523 0.085692 -0.018787
v -0.388512 0.085692 -0.179714
v -0.297355 0.085692 -0.316142
v -0.160927 0.085692 -0.407299
v 0.000000 0.001983 -0.439310
v 0.160927 0.001983 -0.407299
v 0.297355 0.001983 -0.316142
v 0.388512 0.001983 -0.179714
v 0.420523 0.001983 -0.018787
v 0.388512 0.001983 0.142140
v 0.297355 0.001983 0.278568
v 0.160927 0.001983 0.369726
v 0.000000 0.001983 0.401736
v -0.160927 0.001983 0.369726
v -0.297355 0.001983 0.278568
v -0.388512 0.001983 0.142140
v -0.420523 0.001983 -0.018787
v -0.388512 0.001983 -0.179714
v -0.297355 0.001983 -0.316142
v -0.160927 0.001983 -0.407299
v 0.000000 0.085692 -0.391451
v 0.142612 0.085692 -0.363084
v 0.263513 0.085692 -0.282300
v 0.344297 0.085692 -0.161399
v 0.372664 0.085692 -0.018787
v 0.344297 0.085692 0.123825
v 0.263513 0.085692 0.244726
v 0.142612 0.085692 0.325510
v 0.000000 0.085692 0.353877
v -0.142612 0.085692 0.325510
v -0.263513 0.085692 0.244726
v -0.344297 0.085692 0.123825
v -0.372664 0.085692 -0.018787
v -0.344297 0.085692 -0.161399
v -0.263513 0.085692 -0.282300
v -0.142612 0.085692 -0.363084
v 0.000000 0.050392 -0.391451
v 0.142612 0.050392 -0.363084
v 0.263513 0.050392 -0.282300
v 0.344297 0.050392 -0.161399
v 0.372664 0.050392 -0.018787
v 0.344297 0.050392 0.123825
v 0.263513 0.050392 0.244726
v 0.142612 0.050392 0.325510
v 0.000000 0.050392 0.353877
v -0.142612 0.050392 0.325510
v -0.263513 0.050392 0.244726
v -0.344297 0.050392 0.123825
v -0.372664 0.050392 -0.018787
v -0.344297 0.050392 -0.161399
v -0.263513 0.050392 -0.282300
v -0.142612 0.050392 -0.363084
v 0.193269 0.082318 -0.225123
v 0.176941 0.082318 -0.231778
v 0.161216 0.082318 -0.237790
v 0.146043 0.082318 -0.243170
v 0.131370 0.082318 -0.247930
v 0.117145 0.082318 -0.252085
v 0.103315 0.082318 -0.255645
v 0.089828 0.082318 -0.258623
v 0.076632 0.082318 -0.261032
v 0.063675 0.082318 -0.262883
v 0.050904 0.082318 -0.264191
v 0.038267 0.082318 -0.264966
v 0.025713 0.082318 -0.265222
v -0.012198 0.082318 -0.262994
v -0.048077 0.082318 -0.256470
v -0.081684 0.082318 -0.245888
v -0.112777 0.082318 -0.231488
v -0.141116 0.082318 -0.213507
v -0.166458 0.082318 -0.192184
v -0.188563 0.082318 -0.167759
v -0.207190 0.082318 -0.140469
v -0.222098 0.082318 -0.110554
v -0.233044 0.082318 -0.078252
v -0.239789 0.082318 -0.043802
v -0.242091 0.082318 -0.007443
v -0.240407 0.082318 0.018858
v -0.235302 0.082318 0.046145
v -0.226696 0.082318 0.073796
v -0.214510 0.082318 0.101185
v -0.198664 0.082318 0.127690
v -0.179078 0.082318 0.152685
v -0.155674 0.082318 0.175547
v -0.128371 0.082318 0.195651
v -0.097090 0.082318 0.212375
v -0.061752 0.082318 0.225092
v -0.022276 0.082318 0.233181
v 0.021417 0.082318 0.236015
v 0.040075 0.082318 0.235649
v 0.057789 0.082318 0.234573
v 0.074628 0.082318 0.232827
v 0.090661 0.082318 0.230446
v 0.105959 0.082318 0.227469
v 0.120590 0.082318 0.223932
v 0.134624 0.082318 0.219873
v 0.148131 0.082318 0.215329
v 0.161181 0.082318 0.210338
v 0.173843 0.082318 0.204937
v 0.186187 0.082318 0.199162
v 0.198282 0.082318 0.193052
v 0.198282 0.082318 0.116435
v 0.184399 0.082318 0.125040
v 0.170342 0.082318 0.132950
v 0.156146 0.082318 0.140154
v 0.141846 0.082318 0.146641
v 0.127476 0.082318 0.152403
v 0.113071 0.082318 0.157429
v 0.098667 0.082318 0.161708
v 0.084297 0.082318 0.165232
v 0.069996 0.082318 0.167990
v 0.055800 0.082318 0.169973
v 0.041744 0.082318 0.171170
v 0.027861 0.082318 0.171571
v -0.000697 0.082318 0.170014
v -0.027554 0.082318 0.165441
v -0.052561 0.082318 0.157999
v -0.075569 0.082318 0.147835
v -0.096429 0.082318 0.135095
v -0.114992 0.082318 0.119925
v -0.131108 0.082318 0.102474
v -0.144628 0.082318 0.082886
v -0.155404 0.082318 0.061310
v -0.163285 0.082318 0.037891
v -0.168124 0.082318 0.012776
v -0.169770 0.082318 -0.013887
v -0.168071 0.082318 -0.040127
v -0.163100 0.082318 -0.065025
v -0.155046 0.082318 -0.088401
v -0.144098 0.082318 -0.110077
v -0.130445 0.082318 -0.129873
v -0.114276 0.082318 -0.147610
v -0.095779 0.082318 -0.163110
v -0.075145 0.082318 -0.176192
v -0.052561 0.082318 -0.186680
v -0.028217 0.082318 -0.194392
v -0.002301 0.082318 -0.199151
v 0.024997 0.082318 -0.200777
v 0.039042 0.082318 -0.200447
v 0.052926 0.082318 -0.199448
v 0.066696 0.082318 -0.197767
v 0.080398 0.082318 -0.195393
v 0.094081 0.082318 -0.192313
v 0.107790 0.082318 -0.188515
v 0.121575 0.082318 -0.183985
v 0.135481 0.082318 -0.178712
v 0.149556 0.082318 -0.172683
v 0.163848 0.082318 -0.165886
v 0.178403 0.082318 -0.158308
v 0.193269 0.082318 -0.149937
v 0.025713 0.009167 -0.265222
v -0.012198 0.009167 -0.262994
v 0.038267 0.009167 -0.264966
v 0.050904 0.009167 -0.264191
v 0.063675 0.009167 -0.262883
v -0.048077 0.009167 -0.256470
v 0.076632 0.009167 -0.261032
v 0.089828 0.009167 -0.258623
v 0.103315 0.009167 -0.255645
v -0.081684 0.009167 -0.245888
v 0.117145 0.009167 -0.252085
v 0.131370 0.009167 -0.247930
v 0.146043 0.009167 -0.243170
v -0.112777 0.009167 -0.231488
v 0.161216 0.009167 -0.237790
v 0.176941 0.009167 -0.231778
v 0.193269 0.009167 -0.225123
v -0.141116 0.009167 -0.213507
v 0.052926 0.009167 -0.199448
v 0.066696 0.009167 -0.197767
v 0.080398 0.009167 -0.195393
v 0.094081 0.009167 -0.192313
v 0.107790 0.009167 -0.188515
v 0.121575 0.009167 -0.183985
v 0.135481 0.009167 -0.178712
v 0.149556 0.009167 -0.172683
v 0.163848 0.009167 -0.165886
v 0.178403 0.009167 -0.158308
v 0.193269 0.009167 -0.149937
v -0.166458 0.009167 -0.192184
v 0.024997 0.009167 -0.200777
v 0.039042 0.009167 -0.200447
v -0.002301 0.009167 -0.199151
v -0.028217 0.009167 -0.194392
v -0.052561 0.009167 -0.186680
v -0.188563 0.009167 -0.167759
v -0.075145 0.009167 -0.176192
v -0.095779 0.009167 -0.163110
v -0.207190 0.009167 -0.140469
v -0.114276 0.009167 -0.147610
v -0.130445 0.009167 -0.129873
v -0.222098 0.009167 -0.110554
v -0.144098 0.009167 -0.110077
v -0.233044 0.009167 -0.078252
v -0.155046 0.009167 -0.088401
v -0.163100 0.009167 -0.065025
v -0.239789 0.009167 -0.043802
v -0.168071 0.009167 -0.040127
v -0.242091 0.009167 -0.007443
v -0.169770 0.009167 -0.013887
v -0.168124 0.009167 0.012776
v -0.240407 0.009167 0.018858
v -0.163285 0.009167 0.037891
v -0.235302 0.009167 0.046145
v -0.155404 0.009167 0.061310
v -0.226696 0.009167 0.073796
v -0.144628 0.009167 0.082886
v -0.214510 0.009167 0.101185
v -0.131108 0.009167 0.102474
v -0.198664 0.009167 0.127690
v -0.114992 0.009167 0.119925
v 0.198282 0.009167 0.116435
v 0.184399 0.009167 0.125040
v 0.198282 0.009167 0.193052
v -0.096429 0.009167 0.135095
v 0.170342 0.009167 0.132950
v -0.179078 0.009167 0.152685
v 0.156146 0.009167 0.140154
v -0.075569 0.009167 0.147835
v 0.141846 0.009167 0.146641
v 0.127476 0.009167 0.152403
v -0.052561 0.009167 0.157999
v 0.113071 0.009167 0.157429
v -0.155674 0.009167 0.175547
v 0.098667 0.009167 0.161708
v -0.027554 0.009167 0.165441
v 0.084297 0.009167 0.165232
v 0.069996 0.009167 0.167990
v -0.000697 0.009167 0.170014
v 0.055800 0.009167 0.169973
v 0.041744 0.009167 0.171170
v 0.027861 0.009167 0.171571
v -0.128371 0.009167 0.195651
v 0.186187 0.009167 0.199162
v -0.097090 0.009167 0.212375
v 0.173843 0.009167 0.204937
v 0.161181 0.009167 0.210338
v 0.148131 0.009167 0.215329
v -0.061752 0.009167 0.225092
v 0.134624 0.009167 0.219873
v 0.120590 0.009167 0.223932
v 0.105959 0.009167 0.227469
v -0.022276 0.009167 0.233181
v 0.090661 0.009167 0.230446
v 0.074628 0.009167 0.232827
v 0.057789 0.009167 0.234573
v 0.021417 0.009167 0.236015
v 0.040075 0.009167 0.235649
v -0.186372 -0.007952 -0.225123
v -0.170043 -0.007952 -0.231778
v -0.154319 -0.007952 -0.237790
v -0.139146 -0.007952 -0.243170
v -0.124473 -0.007952 -0.247930
v -0.110248 -0.007952 -0.252085
v -0.096418 -0.007952 -0.255645
v -0.082931 -0.007952 -0.258623
v -0.069735 -0.007952 -0.261032
v -0.056777 -0.007952 -0.262883
v -0.044007 -0.007952 -0.264191
v -0.031370 -0.007952 -0.264966
v -0.018815 -0.007952 -0.265222
v 0.019095 -0.007952 -0.262994
v 0.054974 -0.007952 -0.256470
v 0.088581 -0.007952 -0.245888
v 0.119675 -0.007952 -0.231488
v 0.148013 -0.007952 -0.213507
v 0.173355 -0.007952 -0.192184
v 0.195461 -0.007952 -0.167759
v 0.214087 -0.007952 -0.140469
v 0.228995 -0.007952 -0.110554
v 0.239942 -0.007952 -0.078252
v 0.246687 -0.007952 -0.043802
v 0.248988 -0.007952 -0.007443
v 0.247304 -0.007952 0.018858
v 0.242199 -0.007952 0.046145
v 0.233593 -0.007952 0.073796
v 0.221407 -0.007952 0.101185
v 0.205561 -0.007952 0.127690
v 0.185976 -0.007952 0.152685
v 0.162571 -0.007952 0.175547
v 0.135269 -0.007952 0.195651
v 0.103988 -0.007952 0.212375
v 0.068649 -0.007952 0.225092
v 0.029173 -0.007952 0.233181
v -0.014519 -0.007952 0.236015
v -0.033178 -0.007952 0.235649
v -0.050892 -0.007952 0.234573
v -0.067731 -0.007952 0.232827
v -0.083764 -0.007952 0.230446
v -0.099061 -0.007952 0.227469
v -0.113692 -0.007952 0.223932
v -0.127727 -0.007952 0.219873
v -0.141234 -0.007952 0.215329
v -0.154284 -0.007952 0.210338
v -0.166946 -0.007952 0.204937
v -0.179289 -0.007952 0.199162
v -0.191384 -0.007952 0.193052
v -0.191384 -0.007952 0.116435
v -0.177502 -0.007952 0.125040
v -0.163445 -0.007952 0.132950
v -0.149249 -0.007952 0.140154
v -0.134949 -0.007952 0.146641
v -0.120579 -0.007952 0.152403
v -0.106174 -0.007952 0.157429
v -0.091769 -0.007952 0.161708
v -0.077399 -0.007952 0.165232
v -0.063099 -0.007952 0.167990
v -0.048903 -0.007952 0.169973
v -0.034846 -0.007952 0.171170
v -0.020964 -0.007952 0.171571
v 0.007594 -0.007952 0.170014
v 0.034451 -0.007952 0.165441
v 0.059458 -0.007952 0.157999
v 0.082466 -0.007952 0.147835
v 0.103326 -0.007952 0.135095
v 0.121889 -0.007952 0.119925
v 0.138005 -0.007952 0.102474
v 0.151526 -0.007952 0.082886
v 0.162301 -0.007952 0.061310
v 0.170183 -0.007952 0.037891
v 0.175021 -0.007952 0.012776
v 0.176667 -0.007952 -0.013887
v 0.174968 -0.007952 -0.040127
v 0.169997 -0.007952 -0.065025
v 0.161943 -0.007952 -0.088401
v 0.150995 -0.007952 -0.110077
v 0.137342 -0.007952 -0.129873
v 0.121173 -0.007952 -0.147610
v 0.102677 -0.007952 -0.163110
v 0.082042 -0.007952 -0.176192
v 0.059458 -0.007952 -0.186680
v 0.035114 -0.007952 -0.194392
v 0.009198 -0.007952 -0.199151
v -0.018099 -0.007952 -0.200777
v -0.032145 -0.007952 -0.200447
v -0.046029 -0.007952 -0.199448
v -0.059798 -0.007952 -0.197767
v -0.073501 -0.007952 -0.195393
v -0.087183 -0.007952 -0.192313
v -0.100893 -0.007952 -0.188515
v -0.114678 -0.007952 -0.183985
v -0.128584 -0.007952 -0.178712
v -0.142659 -0.007952 -0.172683
v -0.156951 -0.007952 -0.165886
v -0.171506 -0.007952 -0.158308
v -0.186372 -0.007952 -0.149937
v -0.018815 -0.081104 -0.265222
v 0.019095 -0.081104 -0.262994
v -0.031370 -0.081104 -0.264966
v -0.044007 -0.081104 -0.264191
v -0.056777 -0.081104 -0.262883
v 0.054974 -0.081104 -0.256470
v -0.069735 -0.081104 -0.261032
v -0.082931 -0.081104 -0.258623
v -0.096418 -0.081104 -0.255645
v 0.088581 -0.081104 -0.245888
v -0.110248 -0.081104 -0.252085
v -0.124473 -0.081104 -0.247930
v -0.139146 -0.081104 -0.243170
v 0.119675 -0.081104 -0.231488
v -0.154319 -0.081104 -0.237790
v -0.170043 -0.081104 -0.231778
v -0.186372 -0.081104 -0.225123
v 0.148013 -0.081104 -0.213507
v -0.046029 -0.081104 -0.199448
v -0.059798 -0.081104 -0.197767
v -0.073501 -0.081104 -0.195393
v -0.087183 -0.081104 -0.192313
v -0.100893 -0.081104 -0.188515
v -0.114678 -0.081104 -0.183985
v -0.128584 -0.081104 -0.178712
v -0.142659 -0.081104 -0.172683
v -0.156951 -0.081104 -0.165886
v -0.171506 -0.081104 -0.158308
v -0.186372 -0.081104 -0.149937
v 0.173355 -0.081104 -0.192184
v -0.018099 -0.081104 -0.200777
v -0.032145 -0.081104 -0.200447
v 0.009198 -0.081104 -0.199151
v 0.035114 -0.081104 -0.194392
v 0.059458 -0.081104 -0.186680
v 0.195461 -0.081104 -0.167759
v 0.082042 -0.081104 -0.176192
v 0.102677 -0.081104 -0.163110
v 0.214087 -0.081104 -0.140469
v 0.121173 -0.081104 -0.147610
v 0.137342 -0.081104 -0.129873
v 0.228995 -0.081104 -0.110554
v 0.150995 -0.081104 -0.110077
v 0.239942 -0.081104 -0.078252
v 0.161943 -0.081104 -0.088401
v 0.169997 -0.081104 -0.065025
v 0.246687 -0.081104 -0.043802
v 0.174968 -0.081104 -0.040127
v 0.248988 -0.081104 -0.007443
v 0.176667 -0.081104 -0.013887
v 0.175021 -0.081104 0.012776
v 0.247304 -0.081104 0.018858
v 0.170183 -0.081104 0.037891
v 0.242199 -0.081104 0.046145
v 0.162301 -0.081104 0.061310
v 0.233593 -0.081104 0.073796
v 0.151526 -0.081104 0.082886
v 0.221407 -0.081104 0.101185
v 0.138005 -0.081104 0.102474
v 0.205561 -0.081104 0.127690
v 0.121889 -0.081104 0.119925
v -0.191384 -0.081104 0.116435
v -0.177502 -0.081104 0.125040
v -0.191384 -0.081104 0.193052
v 0.103326 -0.081104 0.135095
v -0.163445 -0.081104 0.132950
v 0.185976 -0.081104 0.152685
v -0.149249 -0.081104 0.140154
v 0.082466 -0.081104 0.147835
v -0.134949 -0.081104 0.146641
v -0.120579 -0.081104 0.152403
v 0.059458 -0.081104 0.157999
v -0.106174 -0.081104 0.157429
v 0.162571 -0.081104 0.175547
v -0.091769 -0.081104 0.161708
v 0.034451 -0.081104 0.165441
v -0.077399 -0.081104 0.165232
v -0.063099 -0.081104 0.167990
v 0.007594 -0.081104 0.170014
v -0.048903 -0.081104 0.169973
v -0.034846 -0.081104 0.171170
v -0.020964 -0.081104 0.171571
v 0.135269 -0.081104 0.195651
v -0.179289 -0.081104 0.199162
v 0.103988 -0.081104 0.212375
v -0.166946 -0.081104 0.204937
v -0.154284 -0.081104 0.210338
v -0.141234 -0.081104 0.215329
v 0.068649 -0.081104 0.225092
v -0.127727 -0.081104 0.219873
v -0.113692 -0.081104 0.223932
v -0.099061 -0.081104 0.227469
v 0.029173 -0.081104 0.233181
v -0.083764 -0.081104 0.230446
v -0.067731 -0.081104 0.232827
v -0.050892 -0.081104 0.234573
v -0.014519 -0.081104 0.236015
v -0.033178 -0.081104 0.235649
vn -0.0000 -1.0000 -0.0000
vn -0.1951 -0.0000 -0.9808
vn -0.5556 -0.0000 -0.8315
vn -0.8315 -0.0000 -0.5556
vn -0.9808 -0.0000 -0.1951
vn -0.9808 -0.0000 0.1951
vn -0.8315 -0.0000 0.5556
vn -0.5556 -0.0000 0.8315
vn -0.1951 -0.0000 0.9808
vn 0.1951 -0.0000 0.9808
vn 0.5556 -0.0000 0.8315
vn 0.8315 -0.0000 0.5556
vn 0.9808 -0.0000 0.1951
vn 0.9808 -0.0000 -0.1951
vn 0.8315 -0.0000 -0.5556
vn 0.5556 -0.0000 -0.8315
vn 0.1951 -0.0000 -0.9808
vn -0.0000 1.0000 -0.0000
vn 0.2350 -0.0000 0.9720
vn -0.4295 -0.0000 0.9031
vn -0.0849 -0.0000 -0.9964
vn -0.4202 -0.0000 -0.9074
vn -0.4525 -0.0000 -0.8917
vn 0.9819 -0.0000 -0.1892
vn 0.6423 -0.0000 0.7665
vn -0.2007 -0.0000 0.9796
vn -0.9829 -0.0000 0.1839
vn -0.4618 -0.0000 0.8870
vn 0.7390 -0.0000 0.6737
vn 0.0544 -0.0000 -0.9985
vn 0.3342 -0.0000 -0.9425
vn 0.5212 -0.0000 -0.8534
vn -0.0587 -0.0000 -0.9983
vn -0.8950 -0.0000 -0.4460
vn 0.1910 -0.0000 0.9816
vn -0.4907 -0.0000 0.8714
vn -0.0289 -0.0000 -0.9996
vn -0.4131 -0.0000 -0.9107
vn 0.9478 -0.0000 -0.3189
vn 1.0000 -0.0000 -0.0000
vn 0.3571 -0.0000 -0.9341
vn 0.0204 -0.0000 -0.9998
vn -0.9548 -0.0000 0.2972
vn 0.1469 -0.0000 0.9892
vn -0.6438 -0.0000 -0.7652
vn -0.3722 -0.0000 -0.9282
vn 0.8232 -0.0000 0.5677
vn -0.5929 -0.0000 0.8053
vn 0.3774 -0.0000 -0.9260
vn 0.0612 -0.0000 -0.9981
vn -0.9471 -0.0000 -0.3209
vn 0.1031 -0.0000 0.9947
vn -0.5358 -0.0000 -0.8444
vn 0.8946 -0.0000 -0.4468
vn -0.0647 -0.0000 0.9979
vn -0.0235 -0.0000 0.9997
vn 0.4041 -0.0000 -0.9147
vn 0.1019 -0.0000 -0.9948
vn -0.9136 -0.0000 0.4065
vn 0.4509 -0.0000 0.8926
vn -0.3294 -0.0000 -0.9442
vn -0.1789 -0.0000 -0.9839
vn 0.8926 -0.0000 0.4508
vn 0.0196 -0.0000 0.9998
vn -0.0718 -0.0000 0.9974
vn -0.4715 -0.0000 0.8819
vn 0.0606 -0.0000 0.9982
vn -0.1212 -0.0000 0.9926
vn -0.6988 -0.0000 0.7153
vn 0.8230 -0.0000 -0.5680
vn 0.9455 -0.0000 0.3257
vn 0.0595 -0.0000 0.9982
vn 0.1414 -0.0000 -0.9899
vn -0.8583 -0.0000 0.5131
vn -0.9814 -0.0000 -0.1921
vn 0.4238 -0.0000 0.9058
vn -0.1707 -0.0000 0.9853
vn -0.2848 -0.0000 -0.9586
vn 0.1806 -0.0000 0.9836
vn 0.1796 -0.0000 -0.9837
vn 0.3923 -0.0000 0.9198
vn -0.2196 -0.0000 0.9756
vn 0.7346 -0.0000 -0.6784
vn 0.9806 -0.0000 0.1958
vn 0.3020 -0.0000 0.9533
vn 0.2852 -0.0000 -0.9585
vn 0.2156 -0.0000 -0.9765
vn -0.5268 -0.0000 -0.8500
vn -0.9980 -0.0000 -0.0632
vn -0.7414 -0.0000 -0.6710
vn 0.3572 -0.0000 0.9340
vn -0.2670 -0.0000 0.9637
vn -0.2382 -0.0000 -0.9712
vn -0.3003 -0.0000 -0.9538
vn -0.3386 -0.0000 0.9409
vn -0.3122 -0.0000 0.9500
vn -0.1894 -0.0000 -0.9819
vn 0.9979 -0.0000 0.0646
vn 0.4212 -0.0000 0.9070
vn 0.2493 -0.0000 -0.9684
vn 0.6328 -0.0000 -0.7743
vn 0.3189 -0.0000 0.9478
vn -0.3546 -0.0000 0.9350
vn -0.4904 -0.0000 -0.8715
vn 0.9981 -0.0000 -0.0616
vn 0.5355 -0.0000 0.8446
vn 0.1679 -0.0000 -0.9858
vn 0.2804 -0.0000 -0.9599
vn -0.9980 -0.0000 0.0639
vn -0.8259 -0.0000 -0.5638
vn 0.2778 -0.0000 0.9606
vn -0.3937 -0.0000 0.9192
vn -0.1383 -0.0000 -0.9904
vn -0.7871 -0.0000 0.6168
vn 0.3086 -0.0000 -0.9512
vn -0.0000 -1.0000 0.0012
vn -0.0000 -1.0000 0.0015
vn 0.0001 -1.0000 0.0020
vn -0.2350 -0.0000 0.9720
vn 0.4295 -0.0000 0.9031
vn 0.0848 -0.0000 -0.9964
vn 0.4202 -0.0000 -0.9074
vn 0.4525 -0.0000 -0.8917
vn -0.9819 -0.0000 -0.1892
vn -0.6423 -0.0000 0.7665
vn 0.2007 -0.0000 0.9796
vn 0.9829 -0.0000 0.1839
vn 0.4618 -0.0000 0.8870
vn -0.7390 -0.0000 0.6737
vn -0.0544 -0.0000 -0.9985
vn -0.3342 -0.0000 -0.9425
vn -0.5212 -0.0000 -0.8534
vn 0.0587 -0.0000 -0.9983
vn 0.8950 -0.0000 -0.4460
vn -0.1910 -0.0000 0.9816
vn 0.4907 -0.0000 0.8714
vn 0.0289 -0.0000 -0.9996
vn 0.4131 -0.0000 -0.9107
vn -0.9478 -0.0000 -0.3190
vn -1.0000 -0.0000 -0.0000
vn -0.3571 -0.0000 -0.9341
vn -0.0204 -0.0000 -0.9998
vn 0.9548 -0.0000 0.2972
vn -0.1469 -0.0000 0.9892
vn 0.6438 -0.0000 -0.7652
vn 0.3722 -0.0000 -0.9282
vn -0.8232 -0.0000 0.5677
vn 0.5929 -0.0000 0.8052
vn -0.3774 -0.0000 -0.9260
vn -0.0612 -0.0000 -0.9981
vn 0.9471 -0.0000 -0.3210
vn -0.1031 -0.0000 0.9947
vn 0.5358 -0.0000 -0.8444
vn -0.8946 -0.0000 -0.4468
vn 0.0647 -0.0000 0.9979
vn 0.0235 -0.0000 0.9997
vn -0.4041 -0.0000 -0.9147
vn -0.1019 -0.0000 -0.9948
vn 0.9136 -0.0000 0.4065
vn -0.4509 -0.0000 0.8926
vn 0.3294 -0.0000 -0.9442
vn 0.1789 -0.0000 -0.9839
vn -0.8926 -0.0000 0.4508
vn -0.0196 -0.0000 0.9998
vn 0.0718 -0.0000 0.9974
vn 0.4715 -0.0000 0.8819
vn -0.0606 -0.0000 0.9982
vn 0.1212 -0.0000 0.9926
vn 0.6988 -0.0000 0.7154
vn -0.8230 -0.0000 -0.5681
vn -0.9455 -0.0000 0.3257
vn -0.0595 -0.0000 0.9982
vn -0.1414 -0.0000 -0.9900
vn 0.8583 -0.0000 0.5131
vn 0.9814 -0.0000 -0.1921
vn -0.4238 -0.0000 0.9058
vn 0.1707 -0.0000 0.9853
vn 0.2848 -0.0000 -0.9586
vn -0.1806 -0.0000 0.9836
vn -0.1796 -0.0000 -0.9837
vn -0.3923 -0.0000 0.9198
vn 0.2196 -0.0000 0.9756
vn -0.7346 -0.0000 -0.6784
vn -0.9806 -0.0000 0.1958
vn -0.3020 -0.0000 0.9533
vn -0.2852 -0.0000 -0.9585
vn -0.2156 -0.0000 -0.9765
vn 0.5269 -0.0000 -0.8500
vn 0.9980 -0.0000 -0.0632
vn 0.7414 -0.0000 -0.6710
vn -0.3572 -0.0000 0.9340
vn 0.2670 -0.0000 0.9637
vn 0.2382 -0.0000 -0.9712
vn 0.3003 -0.0000 -0.9538
vn 0.3386 -0.0000 0.9409
vn 0.3122 -0.0000 0.9500
vn 0.1894 -0.0000 -0.9819
vn -0.9979 -0.0000 0.0646
vn -0.4212 -0.0000 0.9070
vn -0.2493 -0.0000 -0.9684
vn -0.6328 -0.0000 -0.7743
vn -0.3189 -0.0000 0.9478
vn 0.3546 -0.0000 0.9350
vn 0.4904 -0.0000 -0.8715
vn -0.9981 -0.0000 -0.0616
vn -0.5354 -0.0000 0.8446
vn -0.1679 -0.0000 -0.9858
vn -0.2804 -0.0000 -0.9599
vn 0.9980 -0.0000 0.0639
vn 0.8260 -0.0000 -0.5637
vn -0.2778 -0.0000 0.9606
vn 0.3937 -0.0000 0.9192
vn 0.1383 -0.0000 -0.9904
vn 0.7871 -0.0000 0.6168
vn -0.3086 -0.0000 -0.9512
vt 0.437500 0.500000
vt 0.375000 0.500000
vt 0.062500 0.500000
vt 0.062500 0.750000
vt 0.000000 0.750000
vt 0.000000 0.500000
vt 0.125000 0.500000
vt 0.125000 0.750000
vt 0.187500 0.500000
vt 0.187500 0.750000
vt 0.250000 0.500000
vt 0.250000 0.750000
vt 0.312500 0.500000
vt 0.312500 0.750000
vt 0.375000 0.750000
vt 0.437500 0.750000
vt 0.500000 0.500000
vt 0.500000 0.750000
vt 0.562500 0.500000
vt 0.562500 0.750000
vt 0.625000 0.500000
vt 0.625000 0.750000
vt 0.687500 0.500000
vt 0.687500 0.750000
vt 0.750000 0.500000
vt 0.750000 0.750000
vt 0.812500 0.500000
vt 0.812500 0.750000
vt 0.875000 0.500000
vt 0.875000 0.750000
vt 0.937500 0.500000
vt 0.937500 0.750000
vt 1.000000 0.500000
vt 1.000000 0.750000
vt 0.134021 0.000000
vt 0.113402 0.000000
vt 0.123711 0.000000
vt 0.103093 0.000000
vt 0.092784 0.000000
vt 0.144330 0.000000
vt 0.082474 0.000000
vt 0.072165 0.000000
vt 0.061856 0.000000
vt 0.154639 0.000000
vt 0.051546 0.000000
vt 0.041237 0.000000
vt 0.030928 0.000000
vt 0.164948 0.000000
vt 0.020619 0.000000
vt 0.010309 0.000000
vt 0.000000 0.000000
vt 0.175258 0.000000
vt 0.896907 0.000000
vt 0.907216 0.000000
vt 0.917526 0.000000
vt 0.927835 0.000000
vt 0.938144 0.000000
vt 0.948454 0.000000
vt 0.958763 0.000000
vt 0.969072 0.000000
vt 0.979381 0.000000
vt 0.989691 0.000000
vt 1.000000 0.000000
vt 0.185567 0.000000
vt 0.876289 0.000000
vt 0.886598 0.000000
vt 0.865979 0.000000
vt 0.855670 0.000000
vt 0.845361 0.000000
vt 0.195876 0.000000
vt 0.835052 0.000000
vt 0.824742 0.000000
vt 0.206186 0.000000
vt 0.814433 0.000000
vt 0.804124 0.000000
vt 0.216495 0.000000
vt 0.793814 0.000000
vt 0.226804 0.000000
vt 0.783505 0.000000
vt 0.773196 0.000000
vt 0.237113 0.000000
vt 0.762887 0.000000
vt 0.247423 0.000000
vt 0.752577 0.000000
vt 0.742268 0.000000
vt 0.257732 0.000000
vt 0.731959 0.000000
vt 0.268041 0.000000
vt 0.721649 0.000000
vt 0.278351 0.000000
vt 0.711340 0.000000
vt 0.288660 0.000000
vt 0.701031 0.000000
vt 0.298969 0.000000
vt 0.690722 0.000000
vt 0.515464 0.000000
vt 0.494845 0.000000
vt 0.505155 0.000000
vt 0.680412 0.000000
vt 0.525773 0.000000
vt 0.309278 0.000000
vt 0.536082 0.000000
vt 0.670103 0.000000
vt 0.546392 0.000000
vt 0.556701 0.000000
vt 0.659794 0.000000
vt 0.567010 0.000000
vt 0.319588 0.000000
vt 0.577320 0.000000
vt 0.649485 0.000000
vt 0.587629 0.000000
vt 0.597938 0.000000
vt 0.639175 0.000000
vt 0.608247 0.000000
vt 0.618557 0.000000
vt 0.628866 0.000000
vt 0.329897 0.000000
vt 0.484536 0.000000
vt 0.340206 0.000000
vt 0.474227 0.000000
vt 0.463918 0.000000
vt 0.453608 0.000000
vt 0.350515 0.000000
vt 0.443299 0.000000
vt 0.432990 0.000000
vt 0.422680 0.000000
vt 0.360825 0.000000
vt 0.412371 0.000000
vt 0.402062 0.000000
vt 0.391753 0.000000
vt 0.371134 0.000000
vt 0.381443 0.000000
vt 0.750000 0.490000
vt 0.841844 0.471731
vt 0.919706 0.419706
vt 0.971731 0.341844
vt 0.990000 0.250000
vt 0.971731 0.158156
vt 0.919706 0.080294
vt 0.841844 0.028269
vt 0.750000 0.010000
vt 0.658156 0.028269
vt 0.580294 0.080294
vt 0.528269 0.158156
vt 0.510000 0.250000
vt 0.528269 0.341844
vt 0.580294 0.419706
vt 0.658156 0.471731
s 1
g Coin04_Yellow.002
usemtl Yellow.002
f 10/1/1 11/2/1 27/2/1 26/1/1
f 16/3/2 80/4/2 65/5/2 1/6/2
f 15/7/3 79/8/3 80/4/3 16/3/3
f 14/9/4 78/10/4 79/8/4 15/7/4
f 13/11/5 77/12/5 78/10/5 14/9/5
f 12/13/6 76/14/6 77/12/6 13/11/6
f 11/2/7 75/15/7 76/14/7 12/13/7
f 10/1/8 74/16/8 75/15/8 11/2/8
f 9/17/9 73/18/9 74/16/9 10/1/9
f 8/19/10 72/20/10 73/18/10 9/17/10
f 7/21/11 71/22/11 72/20/11 8/19/11
f 6/23/12 70/24/12 71/22/12 7/21/12
f 5/25/13 69/26/13 70/24/13 6/23/13
f 4/27/14 68/28/14 69/26/14 5/25/14
f 3/29/15 67/30/15 68/28/15 4/27/15
f 2/31/16 66/32/16 67/30/16 3/29/16
f 1/33/17 65/34/17 66/32/17 2/31/17
f 24/19/2 25/17/2 41/17/2 40/19/2
f 14/9/1 15/7/1 31/7/1 30/9/1
f 3/29/1 4/27/1 20/27/1 19/29/1
f 7/21/1 8/19/1 24/19/1 23/21/1
f 11/2/1 12/13/1 28/13/1 27/2/1
f 15/7/1 16/3/1 32/3/1 31/7/1
f 4/27/1 5/25/1 21/25/1 20/27/1
f 8/19/1 9/17/1 25/17/1 24/19/1
f 12/13/1 13/11/1 29/11/1 28/13/1
f 1/33/1 2/31/1 18/31/1 17/33/1
f 16/3/1 1/6/1 17/6/1 32/3/1
f 5/25/1 6/23/1 22/23/1 21/25/1
f 9/17/1 10/1/1 26/1/1 25/17/1
f 13/11/1 14/9/1 30/9/1 29/11/1
f 2/31/1 3/29/1 19/29/1 18/31/1
f 6/23/1 7/21/1 23/21/1 22/23/1
f 17/33/9 18/31/9 34/31/9 33/33/9
f 32/3/10 17/6/10 33/6/10 48/3/10
f 25/17/17 26/1/17 42/1/17 41/17/17
f 18/31/8 19/29/8 35/29/8 34/31/8
f 26/1/16 27/2/16 43/2/16 42/1/16
f 19/29/7 20/27/7 36/27/7 35/29/7
f 27/2/15 28/13/15 44/13/15 43/2/15
f 20/27/6 21/25/6 37/25/6 36/27/6
f 28/13/14 29/11/14 45/11/14 44/13/14
f 21/25/5 22/23/5 38/23/5 37/25/5
f 29/11/13 30/9/13 46/9/13 45/11/13
f 22/23/4 23/21/4 39/21/4 38/23/4
f 30/9/12 31/7/12 47/7/12 46/9/12
f 23/21/3 24/19/3 40/19/3 39/21/3
f 31/7/11 32/3/11 48/3/11 47/7/11
f 58/1/18 90/1/18 91/2/18 59/2/18
f 64/3/2 49/6/2 65/5/2 80/4/2
f 63/7/3 64/3/3 80/4/3 79/8/3
f 62/9/4 63/7/4 79/8/4 78/10/4
f 61/11/5 62/9/5 78/10/5 77/12/5
f 60/13/6 61/11/6 77/12/6 76/14/6
f 59/2/7 60/13/7 76/14/7 75/15/7
f 58/1/8 59/2/8 75/15/8 74/16/8
f 57/17/9 58/1/9 74/16/9 73/18/9
f 56/19/10 57/17/10 73/18/10 72/20/10
f 55/21/11 56/19/11 72/20/11 71/22/11
f 54/23/12 55/21/12 71/22/12 70/24/12
f 53/25/13 54/23/13 70/24/13 69/26/13
f 52/27/14 53/25/14 69/26/14 68/28/14
f 51/29/15 52/27/15 68/28/15 67/30/15
f 50/31/16 51/29/16 67/30/16 66/32/16
f 49/33/17 50/31/17 66/32/17 65/34/17
f 88/19/2 104/19/2 105/17/2 89/17/2
f 62/9/18 94/9/18 95/7/18 63/7/18
f 51/29/18 83/29/18 84/27/18 52/27/18
f 55/21/18 87/21/18 88/19/18 56/19/18
f 59/2/18 91/2/18 92/13/18 60/13/18
f 63/7/18 95/7/18 96/3/18 64/3/18
f 52/27/18 84/27/18 85/25/18 53/25/18
f 56/19/18 88/19/18 89/17/18 57/17/18
f 60/13/18 92/13/18 93/11/18 61/11/18
f 49/33/18 81/33/18 82/31/18 50/31/18
f 64/3/18 96/3/18 81/6/18 49/6/18
f 53/25/18 85/25/18 86/23/18 54/23/18
f 57/17/18 89/17/18 90/1/18 58/1/18
f 61/11/18 93/11/18 94/9/18 62/9/18
f 50/31/18 82/31/18 83/29/18 51/29/18
f 54/23/18 86/23/18 87/21/18 55/21/18
f 81/33/9 97/33/9 98/31/9 82/31/9
f 96/3/10 112/3/10 97/6/10 81/6/10
f 89/17/17 105/17/17 106/1/17 90/1/17
f 82/31/8 98/31/8 99/29/8 83/29/8
f 90/1/16 106/1/16 107/2/16 91/2/16
f 83/29/7 99/29/7 100/27/7 84/27/7
f 91/2/15 107/2/15 108/13/15 92/13/15
f 84/27/6 100/27/6 101/25/6 85/25/6
f 92/13/14 108/13/14 109/11/14 93/11/14
f 85/25/5 101/25/5 102/23/5 86/23/5
f 93/11/13 109/11/13 110/9/13 94/9/13
f 86/23/4 102/23/4 103/21/4 87/21/4
f 94/9/12 110/9/12 111/7/12 95/7/12
f 87/21/3 103/21/3 104/19/3 88/19/3
f 95/7/11 111/7/11 112/3/11 96/3/11
f 126/35/18 124/36/18 125/37/18
f 126/35/18 123/38/18 124/36/18
f 126/35/18 122/39/18 123/38/18
f 127/40/18 122/39/18 126/35/18
f 127/40/18 121/41/18 122/39/18
f 127/40/18 120/42/18 121/41/18
f 127/40/18 119/43/18 120/42/18
f 128/44/18 119/43/18 127/40/18
f 128/44/18 118/45/18 119/43/18
f 128/44/18 117/46/18 118/45/18
f 128/44/18 116/47/18 117/46/18
f 129/48/18 116/47/18 128/44/18
f 129/48/18 115/49/18 116/47/18
f 129/48/18 114/50/18 115/49/18
f 129/48/18 113/51/18 114/50/18
f 130/52/18 113/51/18 129/48/18
f 130/52/18 200/53/18 113/51/18
f 200/53/18 201/54/18 113/51/18
f 201/54/18 202/55/18 113/51/18
f 202/55/18 203/56/18 113/51/18
f 203/56/18 204/57/18 113/51/18
f 204/57/18 205/58/18 113/51/18
f 205/58/18 206/59/18 113/51/18
f 206/59/18 207/60/18 113/51/18
f 207/60/18 208/61/18 113/51/18
f 208/61/18 209/62/18 113/51/18
f 209/62/18 210/63/18 113/51/18
f 131/64/18 198/65/18 130/52/18
f 198/65/18 199/66/18 130/52/18
f 199/66/18 200/53/18 130/52/18
f 131/64/18 197/67/18 198/65/18
f 131/64/18 196/68/18 197/67/18
f 131/64/18 195/69/18 196/68/18
f 132/70/18 195/69/18 131/64/18
f 132/70/18 194/71/18 195/69/18
f 132/70/18 193/72/18 194/71/18
f 133/73/18 193/72/18 132/70/18
f 133/73/18 192/74/18 193/72/18
f 133/73/18 191/75/18 192/74/18
f 134/76/18 191/75/18 133/73/18
f 134/76/18 190/77/18 191/75/18
f 135/78/18 190/77/18 134/76/18
f 135/78/18 189/79/18 190/77/18
f 135/78/18 188/80/18 189/79/18
f 136/81/18 188/80/18 135/78/18
f 136/81/18 187/82/18 188/80/18
f 137/83/18 187/82/18 136/81/18
f 137/83/18 186/84/18 187/82/18
f 137/83/18 185/85/18 186/84/18
f 138/86/18 185/85/18 137/83/18
f 138/86/18 184/87/18 185/85/18
f 139/88/18 184/87/18 138/86/18
f 139/88/18 183/89/18 184/87/18
f 140/90/18 183/89/18 139/88/18
f 140/90/18 182/91/18 183/89/18
f 141/92/18 182/91/18 140/90/18
f 141/92/18 181/93/18 182/91/18
f 142/94/18 181/93/18 141/92/18
f 142/94/18 180/95/18 181/93/18
f 163/96/18 161/97/18 162/98/18
f 142/94/18 179/99/18 180/95/18
f 164/100/18 161/97/18 163/96/18
f 143/101/18 179/99/18 142/94/18
f 165/102/18 161/97/18 164/100/18
f 143/101/18 178/103/18 179/99/18
f 166/104/18 161/97/18 165/102/18
f 167/105/18 161/97/18 166/104/18
f 143/101/18 177/106/18 178/103/18
f 168/107/18 161/97/18 167/105/18
f 144/108/18 177/106/18 143/101/18
f 169/109/18 161/97/18 168/107/18
f 144/108/18 176/110/18 177/106/18
f 170/111/18 161/97/18 169/109/18
f 171/112/18 161/97/18 170/111/18
f 144/108/18 175/113/18 176/110/18
f 172/114/18 161/97/18 171/112/18
f 173/115/18 161/97/18 172/114/18
f 144/108/18 174/116/18 175/113/18
f 174/116/18 161/97/18 173/115/18
f 144/108/18 161/97/18 174/116/18
f 145/117/18 161/97/18 144/108/18
f 145/117/18 160/118/18 161/97/18
f 146/119/18 160/118/18 145/117/18
f 146/119/18 159/120/18 160/118/18
f 146/119/18 158/121/18 159/120/18
f 146/119/18 157/122/18 158/121/18
f 147/123/18 157/122/18 146/119/18
f 147/123/18 156/124/18 157/122/18
f 147/123/18 155/125/18 156/124/18
f 147/123/18 154/126/18 155/125/18
f 148/127/18 154/126/18 147/123/18
f 148/127/18 153/128/18 154/126/18
f 148/127/18 152/129/18 153/128/18
f 148/127/18 151/130/18 152/129/18
f 149/131/18 151/130/18 148/127/18
f 149/131/18 150/132/18 151/130/18
f 212/35/1 211/37/1 213/36/1
f 212/35/1 213/36/1 214/38/1
f 212/35/1 214/38/1 215/39/1
f 216/40/1 212/35/1 215/39/1
f 216/40/1 215/39/1 217/41/1
f 216/40/1 217/41/1 218/42/1
f 216/40/1 218/42/1 219/43/1
f 220/44/1 216/40/1 219/43/1
f 220/44/1 219/43/1 221/45/1
f 220/44/1 221/45/1 222/46/1
f 220/44/1 222/46/1 223/47/1
f 224/48/1 220/44/1 223/47/1
f 224/48/1 223/47/1 225/49/1
f 224/48/1 225/49/1 226/50/1
f 224/48/1 226/50/1 227/51/1
f 228/52/1 224/48/1 227/51/1
f 228/52/1 227/51/1 229/53/1
f 229/53/1 227/51/1 230/54/1
f 230/54/1 227/51/1 231/55/1
f 231/55/1 227/51/1 232/56/1
f 232/56/1 227/51/1 233/57/1
f 233/57/1 227/51/1 234/58/1
f 234/58/1 227/51/1 235/59/1
f 235/59/1 227/51/1 236/60/1
f 236/60/1 227/51/1 237/61/1
f 237/61/1 227/51/1 238/62/1
f 238/62/1 227/51/1 239/63/1
f 240/64/1 228/52/1 241/65/1
f 241/65/1 228/52/1 242/66/1
f 242/66/1 228/52/1 229/53/1
f 240/64/1 241/65/1 243/67/1
f 240/64/1 243/67/1 244/68/1
f 240/64/1 244/68/1 245/69/1
f 246/70/1 240/64/1 245/69/1
f 246/70/1 245/69/1 247/71/1
f 246/70/1 247/71/1 248/72/1
f 249/73/1 246/70/1 248/72/1
f 249/73/1 248/72/1 250/74/1
f 249/73/1 250/74/1 251/75/1
f 252/76/1 249/73/1 251/75/1
f 252/76/1 251/75/1 253/77/1
f 254/78/1 252/76/1 253/77/1
f 254/78/1 253/77/1 255/79/1
f 254/78/1 255/79/1 256/80/1
f 257/81/1 254/78/1 256/80/1
f 257/81/1 256/80/1 258/82/1
f 259/83/1 257/81/1 258/82/1
f 259/83/1 258/82/1 260/84/1
f 259/83/1 260/84/1 261/85/1
f 262/86/1 259/83/1 261/85/1
f 262/86/1 261/85/1 263/87/1
f 264/88/1 262/86/1 263/87/1
f 264/88/1 263/87/1 265/89/1
f 266/90/1 264/88/1 265/89/1
f 266/90/1 265/89/1 267/91/1
f 268/92/1 266/90/1 267/91/1
f 268/92/1 267/91/1 269/93/1
f 270/94/1 268/92/1 269/93/1
f 270/94/1 269/93/1 271/95/1
f 273/96/1 272/98/1 274/97/1
f 270/94/1 271/95/1 275/99/1
f 276/100/1 273/96/1 274/97/1
f 277/101/1 270/94/1 275/99/1
f 278/102/1 276/100/1 274/97/1
f 277/101/1 275/99/1 279/103/1
f 280/104/1 278/102/1 274/97/1
f 281/105/1 280/104/1 274/97/1
f 277/101/1 279/103/1 282/106/1
f 283/107/1 281/105/1 274/97/1
f 284/108/1 277/101/1 282/106/1
f 285/109/1 283/107/1 274/97/1
f 284/108/1 282/106/1 286/110/1
f 287/111/1 285/109/1 274/97/1
f 288/112/1 287/111/1 274/97/1
f 284/108/1 286/110/1 289/113/1
f 290/114/1 288/112/1 274/97/1
f 291/115/1 290/114/1 274/97/1
f 284/108/1 289/113/1 292/116/1
f 292/116/1 291/115/1 274/97/1
f 284/108/1 292/116/1 274/97/1
f 293/117/1 284/108/1 274/97/1
f 293/117/1 274/97/1 294/118/1
f 295/119/1 293/117/1 294/118/1
f 295/119/1 294/118/1 296/120/1
f 295/119/1 296/120/1 297/121/1
f 295/119/1 297/121/1 298/122/1
f 299/123/1 295/119/1 298/122/1
f 299/123/1 298/122/1 300/124/1
f 299/123/1 300/124/1 301/125/1
f 299/123/1 301/125/1 302/126/1
f 303/127/1 299/123/1 302/126/1
f 303/127/1 302/126/1 304/128/1
f 303/127/1 304/128/1 305/129/1
f 303/127/1 305/129/1 306/130/1
f 307/131/1 303/127/1 306/130/1
f 307/131/1 306/130/1 308/132/1
f 154/126/19 302/126/19 301/125/19 155/125/19
f 207/60/20 236/60/20 237/61/20 208/61/20
f 172/114/21 290/114/21 291/115/21 173/115/21
f 128/44/22 220/44/22 224/48/22 129/48/22
f 164/100/23 276/100/23 278/102/23 165/102/23
f 184/87/24 263/87/24 261/85/24 185/85/24
f 192/74/25 250/74/25 248/72/25 193/72/25
f 147/123/26 299/123/26 303/127/26 148/127/26
f 138/86/27 262/86/27 264/88/27 139/88/27
f 208/61/28 237/61/28 238/62/28 209/62/28
f 191/75/29 251/75/29 250/74/29 192/74/29
f 174/116/30 292/116/30 289/113/30 175/113/30
f 115/49/31 225/49/31 223/47/31 116/47/31
f 178/103/32 279/103/32 275/99/32 179/99/32
f 125/37/33 211/37/33 212/35/33 126/35/33
f 133/73/34 249/73/34 252/76/34 134/76/34
f 153/128/35 304/128/35 302/126/35 154/126/35
f 209/62/36 238/62/36 239/63/36 210/63/36
f 173/115/37 291/115/37 292/116/37 174/116/37
f 165/102/38 278/102/38 280/104/38 166/104/38
f 183/89/39 265/89/39 263/87/39 184/87/39
f 210/63/40 239/63/40 227/51/40 113/51/40
f 114/50/41 226/50/41 225/49/41 115/49/41
f 124/36/42 213/36/42 211/37/42 125/37/42
f 139/88/43 264/88/43 266/90/43 140/90/43
f 152/129/44 305/129/44 304/128/44 153/128/44
f 130/52/45 228/52/45 240/64/45 131/64/45
f 166/104/46 280/104/46 281/105/46 167/105/46
f 190/77/47 253/77/47 251/75/47 191/75/47
f 144/108/48 284/108/48 293/117/48 145/117/48
f 113/51/49 227/51/49 226/50/49 114/50/49
f 123/38/50 214/38/50 213/36/50 124/36/50
f 134/76/51 252/76/51 254/78/51 135/78/51
f 151/130/52 306/130/52 305/129/52 152/129/52
f 129/48/53 224/48/53 228/52/53 130/52/53
f 182/91/54 267/91/54 265/89/54 183/89/54
f 148/127/55 303/127/55 307/131/55 149/131/55
f 198/65/56 241/65/56 242/66/56 199/66/56
f 177/106/57 282/106/57 279/103/57 178/103/57
f 122/39/58 215/39/58 214/38/58 123/38/58
f 140/90/59 266/90/59 268/92/59 141/92/59
f 160/118/60 294/118/60 274/97/60 161/97/60
f 167/105/61 281/105/61 283/107/61 168/107/61
f 126/35/62 212/35/62 216/40/62 127/40/62
f 189/79/63 255/79/63 253/77/63 190/77/63
f 149/131/64 307/131/64 308/132/64 150/132/64
f 199/66/65 242/66/65 229/53/65 200/53/65
f 145/117/66 293/117/66 295/119/66 146/119/66
f 150/132/67 308/132/67 306/130/67 151/130/67
f 200/53/68 229/53/68 230/54/68 201/54/68
f 143/101/69 277/101/69 284/108/69 144/108/69
f 181/93/70 269/93/70 267/91/70 182/91/70
f 188/80/71 256/80/71 255/79/71 189/79/71
f 197/67/72 243/67/72 241/65/72 198/65/72
f 121/41/73 217/41/73 215/39/73 122/39/73
f 141/92/74 268/92/74 270/94/74 142/94/74
f 135/78/75 254/78/75 257/81/75 136/81/75
f 159/120/76 296/120/76 294/118/76 160/118/76
f 201/54/77 230/54/77 231/55/77 202/55/77
f 168/107/78 283/107/78 285/109/78 169/109/78
f 196/68/79 244/68/79 243/67/79 197/67/79
f 120/42/80 218/42/80 217/41/80 121/41/80
f 158/121/81 297/121/81 296/120/81 159/120/81
f 202/55/82 231/55/82 232/56/82 203/56/82
f 180/95/83 271/95/83 269/93/83 181/93/83
f 187/82/84 258/82/84 256/80/84 188/80/84
f 195/69/85 245/69/85 244/68/85 196/68/85
f 176/110/86 286/110/86 282/106/86 177/106/86
f 119/43/87 219/43/87 218/42/87 120/42/87
f 162/98/88 272/98/88 273/96/88 163/96/88
f 136/81/89 257/81/89 259/83/89 137/83/89
f 131/64/90 240/64/90 246/70/90 132/70/90
f 157/122/91 298/122/91 297/121/91 158/121/91
f 203/56/92 232/56/92 233/57/92 204/57/92
f 169/109/93 285/109/93 287/111/93 170/111/93
f 127/40/94 216/40/94 220/44/94 128/44/94
f 146/119/95 295/119/95 299/123/95 147/123/95
f 161/97/40 274/97/40 272/98/40 162/98/40
f 204/57/96 233/57/96 234/58/96 205/58/96
f 170/111/97 287/111/97 288/112/97 171/112/97
f 186/84/98 260/84/98 258/82/98 187/82/98
f 194/71/99 247/71/99 245/69/99 195/69/99
f 118/45/100 221/45/100 219/43/100 119/43/100
f 179/99/101 275/99/101 271/95/101 180/95/101
f 156/124/102 300/124/102 298/122/102 157/122/102
f 205/58/103 234/58/103 235/59/103 206/59/103
f 163/96/104 273/96/104 276/100/104 164/100/104
f 185/85/105 261/85/105 260/84/105 186/84/105
f 193/72/106 248/72/106 247/71/106 194/71/106
f 175/113/107 289/113/107 286/110/107 176/110/107
f 117/46/108 222/46/108 221/45/108 118/45/108
f 137/83/109 259/83/109 262/86/109 138/86/109
f 132/70/110 246/70/110 249/73/110 133/73/110
f 155/125/111 301/125/111 300/124/111 156/124/111
f 206/59/112 235/59/112 236/60/112 207/60/112
f 171/112/113 288/112/113 290/114/113 172/114/113
f 142/94/114 270/94/114 277/101/114 143/101/114
f 116/47/115 223/47/115 222/46/115 117/46/115
f 322/35/18 321/37/18 320/36/18
f 322/35/18 320/36/18 319/38/18
f 322/35/18 319/38/18 318/39/18
f 323/40/18 322/35/18 318/39/18
f 323/40/18 318/39/18 317/41/18
f 323/40/18 317/41/18 316/42/18
f 323/40/18 316/42/18 315/43/18
f 324/44/18 323/40/18 315/43/18
f 324/44/18 315/43/18 314/45/18
f 324/44/18 314/45/18 313/46/18
f 324/44/18 313/46/18 312/47/18
f 325/48/18 324/44/18 312/47/18
f 325/48/18 312/47/18 311/49/18
f 325/48/18 311/49/18 310/50/18
f 325/48/18 310/50/18 309/51/18
f 326/52/18 325/48/18 309/51/18
f 326/52/18 309/51/18 396/53/18
f 396/53/18 309/51/18 397/54/18
f 397/54/18 309/51/18 398/55/18
f 398/55/18 309/51/18 399/56/18
f 399/56/18 309/51/18 400/57/18
f 400/57/18 309/51/18 401/58/18
f 401/58/18 309/51/18 402/59/18
f 402/59/18 309/51/18 403/60/18
f 403/60/18 309/51/18 404/61/18
f 404/61/18 309/51/18 405/62/18
f 405/62/18 309/51/18 406/63/18
f 327/64/18 326/52/18 394/65/18
f 394/65/18 326/52/18 395/66/18
f 395/66/18 326/52/18 396/53/18
f 327/64/18 394/65/18 393/67/18
f 327/64/18 393/67/18 392/68/18
f 327/64/18 392/68/18 391/69/18
f 328/70/18 327/64/18 391/69/18
f 328/70/18 391/69/18 390/71/18
f 328/70/18 390/71/18 389/72/18
f 329/73/18 328/70/18 389/72/18
f 329/73/18 389/72/18 388/74/18
f 329/73/18 388/74/18 387/75/18
f 330/76/18 329/73/18 387/75/18
f 330/76/18 387/75/18 386/77/18
f 331/78/18 330/76/18 386/77/18
f 331/78/18 386/77/18 385/79/18
f 331/78/18 385/79/18 384/80/18
f 332/81/18 331/78/18 384/80/18
f 332/81/18 384/80/18 383/82/18
f 333/83/18 332/81/18 383/82/18
f 333/83/18 383/82/18 382/84/18
f 333/83/18 382/84/18 381/85/18
f 334/86/18 333/83/18 381/85/18
f 334/86/18 381/85/18 380/87/18
f 335/88/18 334/86/18 380/87/18
f 335/88/18 380/87/18 379/89/18
f 336/90/18 335/88/18 379/89/18
f 336/90/18 379/89/18 378/91/18
f 337/92/18 336/90/18 378/91/18
f 337/92/18 378/91/18 377/93/18
f 338/94/18 337/92/18 377/93/18
f 338/94/18 377/93/18 376/95/18
f 359/96/18 358/98/18 357/97/18
f 338/94/18 376/95/18 375/99/18
f 360/100/18 359/96/18 357/97/18
f 339/101/18 338/94/18 375/99/18
f 361/102/18 360/100/18 357/97/18
f 339/101/18 375/99/18 374/103/18
f 362/104/18 361/102/18 357/97/18
f 363/105/18 362/104/18 357/97/18
f 339/101/18 374/103/18 373/106/18
f 364/107/18 363/105/18 357/97/18
f 340/108/18 339/101/18 373/106/18
f 365/109/18 364/107/18 357/97/18
f 340/108/18 373/106/18 372/110/18
f 366/111/18 365/109/18 357/97/18
f 367/112/18 366/111/18 357/97/18
f 340/108/18 372/110/18 371/113/18
f 368/114/18 367/112/18 357/97/18
f 369/115/18 368/114/18 357/97/18
f 340/108/18 371/113/18 370/116/18
f 370/116/18 369/115/18 357/97/18
f 340/108/18 370/116/18 357/97/18
f 341/117/18 340/108/18 357/97/18
f 341/117/18 357/97/18 356/118/18
f 342/119/18 341/117/18 356/118/18
f 342/119/18 356/118/18 355/120/18
f 342/119/18 355/120/18 354/121/18
f 342/119/18 354/121/18 353/122/18
f 343/123/18 342/119/18 353/122/18
f 343/123/18 353/122/18 352/124/18
f 343/123/18 352/124/18 351/125/18
f 343/123/18 351/125/18 350/126/18
f 344/127/18 343/123/18 350/126/18
f 344/127/18 350/126/18 349/128/18
f 344/127/18 349/128/18 348/129/18
f 344/127/18 348/129/18 347/130/18
f 345/131/18 344/127/18 347/130/18
f 345/131/18 347/130/18 346/132/18
f 408/35/1 409/36/1 407/37/1
f 408/35/1 410/38/1 409/36/1
f 408/35/1 411/39/1 410/38/1
f 412/40/1 411/39/1 408/35/1
f 412/40/1 413/41/1 411/39/1
f 412/40/1 414/42/1 413/41/1
f 412/40/1 415/43/1 414/42/1
f 416/44/1 415/43/1 412/40/1
f 416/44/1 417/45/1 415/43/1
f 416/44/1 418/46/1 417/45/1
f 416/44/1 419/47/1 418/46/1
f 420/48/1 419/47/1 416/44/1
f 420/48/1 421/49/1 419/47/1
f 420/48/1 422/50/1 421/49/1
f 420/48/1 423/51/1 422/50/1
f 424/52/116 423/51/1 420/48/1
f 424/52/116 425/53/117 423/51/1
f 425/53/117 426/54/1 423/51/1
f 426/54/1 427/55/1 423/51/1
f 427/55/1 428/56/1 423/51/1
f 428/56/1 429/57/1 423/51/1
f 429/57/1 430/58/1 423/51/1
f 430/58/1 431/59/1 423/51/1
f 431/59/1 432/60/1 423/51/1
f 432/60/1 433/61/1 423/51/1
f 433/61/1 434/62/1 423/51/1
f 434/62/1 435/63/1 423/51/1
f 436/64/1 437/65/1 424/52/116
f 437/65/1 438/66/118 424/52/116
f 438/66/118 425/53/117 424/52/116
f 436/64/1 439/67/1 437/65/1
f 436/64/1 440/68/1 439/67/1
f 436/64/1 441/69/1 440/68/1
f 442/70/1 441/69/1 436/64/1
f 442/70/1 443/71/1 441/69/1
f 442/70/1 444/72/1 443/71/1
f 445/73/1 444/72/1 442/70/1
f 445/73/1 446/74/1 444/72/1
f 445/73/1 447/75/1 446/74/1
f 448/76/1 447/75/1 445/73/1
f 448/76/1 449/77/1 447/75/1
f 450/78/1 449/77/1 448/76/1
f 450/78/1 451/79/1 449/77/1
f 450/78/1 452/80/1 451/79/1
f 453/81/1 452/80/1 450/78/1
f 453/81/1 454/82/1 452/80/1
f 455/83/1 454/82/1 453/81/1
f 455/83/1 456/84/1 454/82/1
f 455/83/1 457/85/1 456/84/1
f 458/86/1 457/85/1 455/83/1
f 458/86/1 459/87/1 457/85/1
f 460/88/1 459/87/1 458/86/1
f 460/88/1 461/89/1 459/87/1
f 462/90/1 461/89/1 460/88/1
f 462/90/1 463/91/1 461/89/1
f 464/92/1 463/91/1 462/90/1
f 464/92/1 465/93/1 463/91/1
f 466/94/1 465/93/1 464/92/1
f 466/94/1 467/95/1 465/93/1
f 469/96/1 470/97/1 468/98/1
f 466/94/1 471/99/1 467/95/1
f 472/100/1 470/97/1 469/96/1
f 473/101/1 471/99/1 466/94/1
f 474/102/1 470/97/1 472/100/1
f 473/101/1 475/103/1 471/99/1
f 476/104/1 470/97/1 474/102/1
f 477/105/1 470/97/1 476/104/1
f 473/101/1 478/106/1 475/103/1
f 479/107/1 470/97/1 477/105/1
f 480/108/1 478/106/1 473/101/1
f 481/109/1 470/97/1 479/107/1
f 480/108/1 482/110/1 478/106/1
f 483/111/1 470/97/1 481/109/1
f 484/112/1 470/97/1 483/111/1
f 480/108/1 485/113/1 482/110/1
f 486/114/1 470/97/1 484/112/1
f 487/115/1 470/97/1 486/114/1
f 480/108/1 488/116/1 485/113/1
f 488/116/1 470/97/1 487/115/1
f 480/108/1 470/97/1 488/116/1
f 489/117/1 470/97/1 480/108/1
f 489/117/1 490/118/1 470/97/1
f 491/119/1 490/118/1 489/117/1
f 491/119/1 492/120/1 490/118/1
f 491/119/1 493/121/1 492/120/1
f 491/119/1 494/122/1 493/121/1
f 495/123/1 494/122/1 491/119/1
f 495/123/1 496/124/1 494/122/1
f 495/123/1 497/125/1 496/124/1
f 495/123/1 498/126/1 497/125/1
f 499/127/1 498/126/1 495/123/1
f 499/127/1 500/128/1 498/126/1
f 499/127/1 501/129/1 500/128/1
f 499/127/1 502/130/1 501/129/1
f 503/131/1 502/130/1 499/127/1
f 503/131/1 504/132/1 502/130/1
f 350/126/119 351/125/119 497/125/119 498/126/119
f 403/60/120 404/61/120 433/61/120 432/60/120
f 368/114/121 369/115/121 487/115/121 486/114/121
f 324/44/122 325/48/122 420/48/122 416/44/122
f 360/100/123 361/102/123 474/102/123 472/100/123
f 380/87/124 381/85/124 457/85/124 459/87/124
f 388/74/125 389/72/125 444/72/125 446/74/125
f 343/123/126 344/127/126 499/127/126 495/123/126
f 334/86/127 335/88/127 460/88/127 458/86/127
f 404/61/128 405/62/128 434/62/128 433/61/128
f 387/75/129 388/74/129 446/74/129 447/75/129
f 370/116/130 371/113/130 485/113/130 488/116/130
f 311/49/131 312/47/131 419/47/131 421/49/131
f 374/103/132 375/99/132 471/99/132 475/103/132
f 321/37/133 322/35/133 408/35/133 407/37/133
f 329/73/134 330/76/134 448/76/134 445/73/134
f 349/128/135 350/126/135 498/126/135 500/128/135
f 405/62/136 406/63/136 435/63/136 434/62/136
f 369/115/137 370/116/137 488/116/137 487/115/137
f 361/102/138 362/104/138 476/104/138 474/102/138
f 379/89/139 380/87/139 459/87/139 461/89/139
f 406/63/140 309/51/140 423/51/140 435/63/140
f 310/50/141 311/49/141 421/49/141 422/50/141
f 320/36/142 321/37/142 407/37/142 409/36/142
f 335/88/143 336/90/143 462/90/143 460/88/143
f 348/129/144 349/128/144 500/128/144 501/129/144
f 326/52/145 327/64/145 436/64/145 424/52/145
f 362/104/146 363/105/146 477/105/146 476/104/146
f 386/77/147 387/75/147 447/75/147 449/77/147
f 340/108/148 341/117/148 489/117/148 480/108/148
f 309/51/149 310/50/149 422/50/149 423/51/149
f 319/38/150 320/36/150 409/36/150 410/38/150
f 330/76/151 331/78/151 450/78/151 448/76/151
f 347/130/152 348/129/152 501/129/152 502/130/152
f 325/48/153 326/52/153 424/52/153 420/48/153
f 378/91/154 379/89/154 461/89/154 463/91/154
f 344/127/155 345/131/155 503/131/155 499/127/155
f 394/65/156 395/66/156 438/66/156 437/65/156
f 373/106/157 374/103/157 475/103/157 478/106/157
f 318/39/158 319/38/158 410/38/158 411/39/158
f 336/90/159 337/92/159 464/92/159 462/90/159
f 356/118/160 357/97/160 470/97/160 490/118/160
f 363/105/161 364/107/161 479/107/161 477/105/161
f 322/35/162 323/40/162 412/40/162 408/35/162
f 385/79/163 386/77/163 449/77/163 451/79/163
f 345/131/164 346/132/164 504/132/164 503/131/164
f 395/66/165 396/53/165 425/53/165 438/66/165
f 341/117/166 342/119/166 491/119/166 489/117/166
f 346/132/167 347/130/167 502/130/167 504/132/167
f 396/53/168 397/54/168 426/54/168 425/53/168
f 339/101/169 340/108/169 480/108/169 473/101/169
f 377/93/170 378/91/170 463/91/170 465/93/170
f 384/80/171 385/79/171 451/79/171 452/80/171
f 393/67/172 394/65/172 437/65/172 439/67/172
f 317/41/173 318/39/173 411/39/173 413/41/173
f 337/92/174 338/94/174 466/94/174 464/92/174
f 331/78/175 332/81/175 453/81/175 450/78/175
f 355/120/176 356/118/176 490/118/176 492/120/176
f 397/54/177 398/55/177 427/55/177 426/54/177
f 364/107/178 365/109/178 481/109/178 479/107/178
f 392/68/179 393/67/179 439/67/179 440/68/179
f 316/42/180 317/41/180 413/41/180 414/42/180
f 354/121/181 355/120/181 492/120/181 493/121/181
f 398/55/182 399/56/182 428/56/182 427/55/182
f 376/95/183 377/93/183 465/93/183 467/95/183
f 383/82/184 384/80/184 452/80/184 454/82/184
f 391/69/185 392/68/185 440/68/185 441/69/185
f 372/110/186 373/106/186 478/106/186 482/110/186
f 315/43/187 316/42/187 414/42/187 415/43/187
f 358/98/188 359/96/188 469/96/188 468/98/188
f 332/81/189 333/83/189 455/83/189 453/81/189
f 327/64/190 328/70/190 442/70/190 436/64/190
f 353/122/191 354/121/191 493/121/191 494/122/191
f 399/56/192 400/57/192 429/57/192 428/56/192
f 365/109/193 366/111/193 483/111/193 481/109/193
f 323/40/194 324/44/194 416/44/194 412/40/194
f 342/119/195 343/123/195 495/123/195 491/119/195
f 357/97/140 358/98/140 468/98/140 470/97/140
f 400/57/196 401/58/196 430/58/196 429/57/196
f 366/111/197 367/112/197 484/112/197 483/111/197
f 382/84/198 383/82/198 454/82/198 456/84/198
f 390/71/199 391/69/199 441/69/199 443/71/199
f 314/45/200 315/43/200 415/43/200 417/45/200
f 375/99/201 376/95/201 467/95/201 471/99/201
f 352/124/202 353/122/202 494/122/202 496/124/202
f 401/58/203 402/59/203 431/59/203 430/58/203
f 359/96/204 360/100/204 472/100/204 469/96/204
f 381/85/205 382/84/205 456/84/205 457/85/205
f 389/72/206 390/71/206 443/71/206 444/72/206
f 371/113/207 372/110/207 482/110/207 485/113/207
f 313/46/208 314/45/208 417/45/208 418/46/208
f 333/83/209 334/86/209 458/86/209 455/83/209
f 328/70/210 329/73/210 445/73/210 442/70/210
f 351/125/211 352/124/211 496/124/211 497/125/211
f 402/59/212 403/60/212 432/60/212 431/59/212
f 367/112/213 368/114/213 486/114/213 484/112/213
f 338/94/214 339/101/214 473/101/214 466/94/214
f 312/47/215 313/46/215 418/46/215 419/47/215
g Coin04_Orange.002
usemtl Orange.002
f 33/133/1 34/134/1 35/135/1 36/136/1 37/137/1 38/138/1 39/139/1 40/140/1 41/141/1 42/142/1 43/143/1 44/144/1 45/145/1 46/146/1 47/147/1 48/148/1
f 97/133/18 112/148/18 111/147/18 110/146/18 109/145/18 108/144/18 107/143/18 106/142/18 105/141/18 104/140/18 103/139/18 102/138/18 101/137/18 100/136/18 99/135/18 98/134/18
