# Blender 4.4.3
# www.blender.org
mtllib normalEnemy.mtl
o Slime
v 0.166627 0.010908 0.000000
v 0.134804 0.005698 -0.097941
v -0.000000 0.000000 -0.166627
v -0.000000 -0.000000 0.166627
v 0.134804 0.005698 0.097941
v 0.284044 0.026239 -0.092291
v 0.241622 0.026239 -0.175549
v 0.175549 0.026239 -0.241622
v 0.092291 0.026239 -0.284044
v -0.000000 0.026239 -0.298661
v -0.000000 0.026239 0.298661
v 0.092291 0.026239 0.284044
v 0.175549 0.026239 0.241622
v 0.241622 0.026239 0.175549
v 0.284044 0.026239 0.092291
v 0.298661 0.026239 0.000000
v 0.370225 0.073421 -0.120293
v 0.314932 0.073421 -0.228811
v 0.228811 0.073421 -0.314932
v 0.120293 0.073421 -0.370225
v -0.000000 0.073421 -0.389277
v -0.000000 0.073421 0.389277
v 0.120293 0.073421 0.370225
v 0.228811 0.073421 0.314932
v 0.314932 0.073421 0.228811
v 0.370225 0.073421 0.120293
v 0.389277 0.073421 0.000000
v 0.435477 0.156213 -0.141495
v 0.370439 0.156213 -0.269139
v 0.269139 0.156213 -0.370439
v 0.141495 0.156213 -0.435477
v -0.000000 0.156213 -0.457888
v -0.000000 0.156213 0.457887
v 0.141495 0.156213 0.435477
v 0.269139 0.156213 0.370439
v 0.370439 0.156213 0.269139
v 0.435477 0.156213 0.141495
v 0.457887 0.156213 0.000000
v 0.462337 0.235861 -0.150222
v 0.393287 0.235861 -0.285740
v 0.285740 0.235861 -0.393287
v 0.150222 0.235861 -0.462337
v -0.000000 0.235861 -0.486130
v -0.000000 0.235861 0.486129
v 0.150222 0.235861 0.462337
v 0.285740 0.235861 0.393287
v 0.393287 0.235861 0.285740
v 0.462337 0.235861 0.150222
v 0.486129 0.235861 0.000000
v 0.465599 0.319820 -0.151282
v 0.396062 0.319820 -0.287756
v 0.287756 0.319820 -0.396062
v 0.151282 0.319821 -0.465599
v -0.000000 0.319821 -0.489560
v -0.000000 0.319820 0.489560
v 0.151282 0.319820 0.465599
v 0.287756 0.319820 0.396062
v 0.396062 0.319820 0.287756
v 0.465599 0.319820 0.151282
v 0.489559 0.319820 0.000000
v 0.446438 0.412136 -0.145056
v 0.379763 0.412136 -0.275914
v 0.275914 0.412136 -0.379763
v 0.145056 0.412136 -0.446438
v -0.000000 0.412136 -0.469413
v -0.000000 0.412136 0.469412
v 0.145056 0.412136 0.446438
v 0.275914 0.412136 0.379763
v 0.379763 0.412136 0.275914
v 0.446438 0.412136 0.145056
v 0.469412 0.412136 0.000000
v 0.403540 0.495143 -0.131118
v 0.343271 0.495143 -0.249401
v 0.249401 0.495143 -0.343271
v 0.131118 0.495143 -0.403540
v -0.000000 0.495143 -0.424306
v -0.000000 0.495143 0.424306
v 0.131118 0.495143 0.403539
v 0.249401 0.495143 0.343271
v 0.343271 0.495143 0.249401
v 0.403539 0.495143 0.131118
v 0.424306 0.495143 0.000000
v 0.344305 0.570517 -0.111871
v 0.292883 0.570517 -0.212792
v 0.212792 0.570517 -0.292883
v 0.111871 0.570517 -0.344305
v -0.000000 0.570517 -0.362023
v 0.111871 0.570517 0.344305
v 0.212792 0.570517 0.292883
v 0.292883 0.570517 0.212792
v 0.344305 0.570517 0.111871
v 0.362023 0.570517 0.000000
v 0.289141 0.622670 -0.098195
v 0.245958 0.622670 -0.182946
v 0.178699 0.622670 -0.250205
v 0.093948 0.622670 -0.293388
v -0.000000 0.622670 -0.308268
v 0.093947 0.622670 0.284894
v 0.178699 0.622670 0.241711
v 0.245958 0.622670 0.174452
v 0.289141 0.622670 0.089700
v 0.304020 0.622670 -0.004247
v 0.233480 0.675271 -0.084125
v 0.198610 0.674409 -0.152556
v 0.144299 0.673725 -0.206863
v 0.075862 0.673286 -0.241730
v -0.000000 0.673135 -0.253745
v -0.000000 0.679317 0.237207
v 0.075862 0.679166 0.225193
v 0.144299 0.678727 0.190326
v 0.198610 0.678043 0.136018
v 0.233480 0.677181 0.067588
v 0.245496 0.676226 -0.008269
v 0.182650 0.725366 -0.074545
v 0.155371 0.723584 -0.128053
v 0.112884 0.722171 -0.170517
v 0.059347 0.721264 -0.197780
v -0.000000 0.720951 -0.207175
v -0.000000 0.733728 0.176711
v 0.059346 0.733416 0.167317
v 0.112884 0.732508 0.140053
v 0.155371 0.731095 0.097590
v 0.182650 0.729314 0.044082
v 0.192049 0.727340 -0.015232
v 0.145846 0.777425 -0.072577
v 0.124064 0.775117 -0.115265
v 0.090138 0.773286 -0.149141
v 0.047388 0.772110 -0.170891
v -0.000000 0.771704 -0.178386
v -0.000000 0.788263 0.127870
v 0.047388 0.787858 0.120376
v 0.090138 0.786682 0.098626
v 0.124064 0.784850 0.064749
v 0.145846 0.782542 0.022061
v 0.153352 0.779984 -0.025258
v 0.077095 0.904679 -0.119874
v 0.056013 0.902087 -0.140796
v 0.029448 0.900423 -0.154229
v -0.000000 0.899850 -0.158858
v -0.000000 0.923282 0.030287
v 0.029448 0.922708 0.025658
v 0.056013 0.921044 0.012225
v 0.077095 0.918453 -0.008697
v 0.090631 0.915186 -0.035061
v 0.095295 0.911566 -0.064285
v 0.123353 0.832683 -0.083794
v 0.104930 0.828992 -0.119762
v 0.076236 0.826064 -0.148306
v 0.040080 0.824183 -0.166632
v -0.000000 0.823535 -0.172947
v -0.000000 0.850012 0.085100
v 0.040080 0.849364 0.078785
v 0.076236 0.847484 0.060458
v 0.104930 0.844555 0.031914
v 0.123353 0.840865 -0.004053
v 0.129701 0.836774 -0.043924
v 0.110226 0.886024 -0.095187
v 0.093764 0.883048 -0.127359
v 0.068123 0.880687 -0.152890
v 0.035814 0.879171 -0.169282
v -0.000000 0.878649 -0.174931
v -0.000000 0.899994 0.055881
v 0.035814 0.899472 0.050232
v 0.068123 0.897956 0.033840
v 0.093763 0.895595 0.008309
v 0.110226 0.892620 -0.023862
v 0.115898 0.889322 -0.059525
v -0.134804 0.005698 -0.097941
v -0.241622 0.026239 -0.175549
v -0.284044 0.026239 -0.092291
v -0.166627 0.010908 0.000000
v -0.175549 0.026239 -0.241622
v -0.092291 0.026239 -0.284044
v -0.092291 0.026239 0.284044
v -0.134804 0.005698 0.097941
v -0.175549 0.026239 0.241622
v -0.241622 0.026239 0.175549
v -0.284044 0.026239 0.092291
v -0.298661 0.026239 0.000000
v -0.314932 0.073421 -0.228811
v -0.370225 0.073421 -0.120293
v -0.228812 0.073421 -0.314932
v -0.120293 0.073421 -0.370225
v -0.120293 0.073421 0.370225
v -0.228811 0.073421 0.314932
v -0.314932 0.073421 0.228811
v -0.370225 0.073421 0.120293
v -0.389277 0.073421 -0.000000
v -0.370439 0.156213 -0.269139
v -0.435477 0.156213 -0.141495
v -0.269140 0.156213 -0.370439
v -0.141495 0.156213 -0.435477
v -0.141495 0.156213 0.435477
v -0.269139 0.156213 0.370439
v -0.370439 0.156213 0.269139
v -0.435477 0.156213 0.141495
v -0.457887 0.156213 0.000000
v -0.393287 0.235861 -0.285740
v -0.462337 0.235861 -0.150222
v -0.285740 0.235861 -0.393287
v -0.150222 0.235861 -0.462337
v -0.150222 0.235861 0.462337
v -0.285740 0.235861 0.393287
v -0.393287 0.235861 0.285740
v -0.462337 0.235861 0.150222
v -0.486129 0.235861 0.000000
v -0.396062 0.319820 -0.287756
v -0.465599 0.319820 -0.151282
v -0.287756 0.319820 -0.396062
v -0.151282 0.319821 -0.465599
v -0.151282 0.319820 0.465599
v -0.287756 0.319820 0.396062
v -0.396062 0.319820 0.287756
v -0.465599 0.319820 0.151282
v -0.489559 0.319820 0.000000
v -0.379763 0.412136 -0.275914
v -0.446438 0.412136 -0.145056
v -0.275914 0.412136 -0.379763
v -0.145057 0.412136 -0.446438
v -0.145056 0.412136 0.446438
v -0.275914 0.412136 0.379763
v -0.379763 0.412136 0.275914
v -0.446438 0.412136 0.145056
v -0.469412 0.412136 0.000000
v -0.343271 0.495143 -0.249401
v -0.403540 0.495143 -0.131118
v -0.249401 0.495143 -0.343271
v -0.131118 0.495143 -0.403540
v -0.131118 0.495143 0.403539
v -0.249401 0.495143 0.343271
v -0.343271 0.495143 0.249401
v -0.403539 0.495143 0.131118
v -0.424306 0.495143 0.000000
v -0.292883 0.570517 -0.212792
v -0.344305 0.570517 -0.111871
v -0.212792 0.570517 -0.292883
v -0.111872 0.570517 -0.344305
v -0.212792 0.570517 0.292883
v -0.111871 0.570517 0.344305
v -0.292883 0.570517 0.212792
v -0.344305 0.570517 0.111871
v -0.362023 0.570517 0.000000
v -0.245958 0.622670 -0.182946
v -0.289141 0.622670 -0.098195
v -0.178699 0.622670 -0.250205
v -0.093948 0.622670 -0.293388
v -0.178699 0.622670 0.241711
v -0.093948 0.622670 0.284894
v -0.245958 0.622670 0.174452
v -0.289141 0.622670 0.089700
v -0.304021 0.622670 -0.004247
v -0.198610 0.674409 -0.152556
v -0.233480 0.675271 -0.084125
v -0.144299 0.673725 -0.206863
v -0.075862 0.673286 -0.241730
v -0.144299 0.678727 0.190326
v -0.075862 0.679166 0.225193
v -0.198610 0.678043 0.136018
v -0.233480 0.677181 0.067588
v -0.245496 0.676226 -0.008269
v -0.155371 0.723584 -0.128053
v -0.182650 0.725366 -0.074545
v -0.112884 0.722171 -0.170517
v -0.059347 0.721264 -0.197780
v -0.059347 0.733416 0.167317
v -0.112884 0.732508 0.140053
v -0.155371 0.731095 0.097590
v -0.182650 0.729314 0.044082
v -0.192049 0.727340 -0.015232
v -0.124064 0.775117 -0.115265
v -0.145846 0.777425 -0.072577
v -0.090138 0.773286 -0.149141
v -0.047388 0.772110 -0.170891
v -0.047388 0.787858 0.120376
v -0.090138 0.786682 0.098626
v -0.124064 0.784850 0.064749
v -0.145846 0.782542 0.022061
v -0.153352 0.779984 -0.025258
v -0.093764 0.883048 -0.127359
v -0.068123 0.880687 -0.152890
v -0.056013 0.902087 -0.140796
v -0.077096 0.904679 -0.119874
v -0.035815 0.879171 -0.169282
v -0.029448 0.900423 -0.154229
v -0.035815 0.899472 0.050232
v -0.029448 0.922708 0.025658
v -0.068123 0.897956 0.033840
v -0.056013 0.921044 0.012225
v -0.093764 0.895595 0.008309
v -0.077095 0.918453 -0.008697
v -0.110226 0.892620 -0.023862
v -0.090631 0.915186 -0.035061
v -0.115898 0.889322 -0.059525
v -0.095295 0.911566 -0.064285
v -0.110226 0.886024 -0.095187
v -0.104930 0.828992 -0.119762
v -0.123353 0.832683 -0.083794
v -0.076237 0.826064 -0.148306
v -0.040080 0.824183 -0.166632
v -0.040080 0.849364 0.078785
v -0.076236 0.847484 0.060458
v -0.104930 0.844555 0.031914
v -0.123353 0.840865 -0.004053
v -0.129701 0.836774 -0.043924
v 0.047834 0.927423 -0.102987
v 0.034753 0.925815 -0.115968
v 0.018271 0.924782 -0.124302
v -0.000000 0.924427 -0.127174
v -0.000000 0.938965 -0.009819
v 0.018271 0.938609 -0.012691
v 0.034753 0.937577 -0.021026
v 0.047834 0.935969 -0.034007
v 0.056232 0.933942 -0.050364
v 0.059126 0.931696 -0.068497
v -0.047834 0.927423 -0.102987
v -0.034754 0.925815 -0.115968
v -0.018271 0.924782 -0.124302
v -0.018271 0.938609 -0.012691
v -0.034754 0.937577 -0.021026
v -0.047834 0.935969 -0.034007
v -0.056232 0.933942 -0.050364
v -0.059126 0.931696 -0.068497
v 0.017052 0.935437 -0.081961
v -0.000000 0.934369 -0.090584
v -0.000000 0.939551 -0.048749
v 0.017052 0.938483 -0.057372
v 0.021077 0.936960 -0.069666
v -0.017052 0.935437 -0.081961
v -0.017052 0.938483 -0.057372
v -0.021077 0.936960 -0.069666
v -0.000000 0.936960 -0.069666
v 0.053197 0.490353 0.522202
v 0.030713 0.467869 0.522202
v -0.000000 0.459639 0.522202
v -0.030713 0.467869 0.522202
v -0.053197 0.490353 0.522202
v -0.061427 0.521066 0.522202
v -0.053197 0.551779 0.522202
v -0.030713 0.574263 0.522202
v -0.000000 0.582493 0.522202
v 0.030713 0.574263 0.522202
v 0.053197 0.551779 0.522202
v 0.061427 0.521066 0.522202
v 0.101187 0.462646 0.493967
v 0.058420 0.419879 0.493967
v -0.000000 0.404225 0.493967
v -0.058420 0.419879 0.493967
v -0.101187 0.462646 0.493967
v -0.116841 0.521066 0.493967
v -0.101187 0.579486 0.493967
v -0.058420 0.622253 0.493967
v -0.000000 0.637907 0.493967
v 0.058420 0.622253 0.493967
v 0.101187 0.579486 0.493967
v 0.116841 0.521066 0.493967
v 0.139272 0.440657 0.449990
v 0.080409 0.381794 0.449990
v -0.000000 0.360249 0.449990
v -0.080409 0.381794 0.449990
v -0.139272 0.440657 0.449990
v -0.160817 0.521066 0.449990
v -0.139272 0.601475 0.449990
v -0.080409 0.660338 0.449990
v -0.000000 0.681883 0.449990
v 0.080409 0.660338 0.449990
v 0.139272 0.601475 0.449990
v 0.160817 0.521066 0.449990
v 0.163724 0.426540 0.394576
v 0.094526 0.357342 0.394576
v -0.000000 0.332014 0.394576
v -0.094526 0.357342 0.394576
v -0.163724 0.426540 0.394576
v -0.189052 0.521066 0.394576
v -0.163724 0.615592 0.394576
v -0.094526 0.684790 0.394576
v -0.000000 0.710118 0.394576
v 0.094526 0.684790 0.394576
v 0.163724 0.615592 0.394576
v 0.189052 0.521066 0.394576
v 0.172149 0.421675 0.333150
v 0.099391 0.348917 0.333150
v -0.000000 0.322285 0.333150
v -0.099391 0.348917 0.333150
v -0.172149 0.421675 0.333150
v -0.198781 0.521066 0.333150
v -0.172149 0.620457 0.333150
v -0.099391 0.693215 0.333150
v -0.000000 0.719847 0.333150
v 0.099391 0.693215 0.333150
v 0.172149 0.620457 0.333150
v 0.198781 0.521066 0.333150
v 0.163724 0.426540 0.271723
v 0.094526 0.357342 0.271723
v -0.000000 0.332014 0.271723
v -0.094526 0.357342 0.271723
v -0.163724 0.426540 0.271723
v -0.189052 0.521066 0.271723
v -0.163724 0.615592 0.271723
v -0.094526 0.684790 0.271723
v -0.000000 0.710118 0.271723
v 0.094526 0.684790 0.271723
v 0.163724 0.615592 0.271723
v 0.189052 0.521066 0.271723
v 0.139272 0.440657 0.216309
v 0.080409 0.381794 0.216309
v -0.000000 0.360249 0.216309
v -0.080409 0.381794 0.216309
v -0.139272 0.440657 0.216309
v -0.160817 0.521066 0.216309
v -0.139272 0.601475 0.216309
v -0.080409 0.660338 0.216309
v -0.000000 0.681883 0.216309
v 0.080409 0.660338 0.216309
v 0.139272 0.601475 0.216309
v 0.160817 0.521066 0.216309
v -0.000000 0.521066 0.531931
v -0.068587 0.661035 0.491159
v -0.059398 0.686705 0.468420
v -0.034293 0.705497 0.451774
v -0.000000 0.712375 0.445681
v 0.034293 0.705497 0.451774
v 0.059398 0.686705 0.468420
v 0.068587 0.661035 0.491159
v -0.130460 0.640130 0.467561
v -0.112981 0.688958 0.424308
v -0.065230 0.724702 0.392645
v -0.000000 0.737786 0.381055
v 0.065230 0.724702 0.392645
v 0.112981 0.688958 0.424308
v 0.130460 0.640130 0.467561
v -0.179562 0.607571 0.430805
v -0.155506 0.674777 0.371273
v -0.089781 0.723975 0.327692
v -0.000000 0.741982 0.311741
v 0.089781 0.723975 0.327692
v 0.155506 0.674777 0.371273
v 0.179562 0.607571 0.430805
v -0.211088 0.566545 0.384490
v -0.182808 0.645549 0.314506
v -0.105544 0.703385 0.263274
v -0.000000 0.724554 0.244522
v 0.105544 0.703385 0.263274
v 0.182808 0.645549 0.314506
v 0.211088 0.566545 0.384490
v -0.221951 0.521066 0.333150
v -0.192216 0.604137 0.259564
v -0.110976 0.664948 0.205695
v -0.000000 0.687207 0.185978
v 0.110976 0.664948 0.205695
v 0.192215 0.604137 0.259564
v 0.221951 0.521066 0.333150
v -0.211088 0.475587 0.281809
v -0.182808 0.554592 0.211825
v -0.105544 0.612428 0.160593
v -0.000000 0.633597 0.141841
v 0.105544 0.612428 0.160593
v 0.182808 0.554592 0.211825
v 0.211088 0.475587 0.281809
v -0.179562 0.434561 0.235494
v -0.155506 0.501766 0.175962
v -0.089781 0.550964 0.132382
v -0.000000 0.568972 0.116430
v 0.089781 0.550964 0.132382
v 0.155506 0.501766 0.175962
v 0.179562 0.434561 0.235494
v -0.130460 0.402002 0.198739
v -0.112981 0.450829 0.155486
v -0.065230 0.486574 0.123823
v -0.000000 0.499657 0.112233
v 0.065230 0.486574 0.123823
v 0.112981 0.450829 0.155486
v 0.130460 0.402002 0.198739
v -0.068587 0.381097 0.175140
v -0.059398 0.406768 0.152401
v -0.034293 0.425560 0.135755
v -0.000000 0.432438 0.129662
v 0.034293 0.425560 0.135755
v 0.059398 0.406768 0.152401
v 0.068587 0.381097 0.175140
v -0.000000 0.668238 0.499291
v -0.000000 0.373894 0.167009
v -0.210421 0.557967 0.285608
v -0.182230 0.490901 0.204437
v -0.105211 0.432324 0.148278
v -0.000000 0.410883 0.127722
v 0.105211 0.432324 0.148278
v 0.182230 0.490901 0.204437
v 0.210421 0.557967 0.285608
v -0.221250 0.528981 0.344363
v -0.191608 0.436931 0.252487
v -0.110625 0.375339 0.193438
v -0.000000 0.352795 0.171825
v 0.110625 0.375339 0.193438
v 0.191608 0.436931 0.252487
v 0.221250 0.528981 0.344363
v -0.210421 0.479129 0.396361
v -0.182230 0.391196 0.308434
v -0.105211 0.332619 0.252275
v -0.000000 0.311179 0.231719
v 0.105211 0.332619 0.252275
v 0.182230 0.391196 0.308434
v 0.210421 0.479129 0.396361
v -0.178995 0.434157 0.443270
v -0.155014 0.358175 0.366800
v -0.089498 0.308346 0.319028
v -0.000000 0.290108 0.301542
v 0.089498 0.308346 0.319028
v 0.155014 0.358175 0.366800
v 0.178995 0.434157 0.443270
v -0.130048 0.398467 0.480496
v -0.112624 0.341098 0.421872
v -0.065024 0.304895 0.387163
v -0.000000 0.291644 0.374459
v 0.065024 0.304895 0.387163
v 0.112624 0.341098 0.421872
v 0.130048 0.398467 0.480496
v -0.068370 0.375552 0.504398
v -0.059210 0.341638 0.468259
v -0.034185 0.322605 0.450012
v -0.000000 0.315638 0.443333
v 0.034185 0.322605 0.450012
v 0.059210 0.341638 0.468259
v 0.068370 0.375552 0.504398
v -0.000000 0.367656 0.512633
vn 0.1089 -0.9926 -0.0537
vn 0.2522 -0.9522 -0.1726
vn 0.2870 -0.9542 -0.0841
vn 0.1334 -0.9911 -0.0000
vn 0.1886 -0.9497 -0.2499
vn -0.0000 -0.9941 -0.1089
vn 0.1033 -0.9470 -0.3043
vn -0.0000 -0.9434 -0.3315
vn 0.1032 -0.9470 -0.3043
vn -0.0000 -0.9941 0.1089
vn 0.1033 -0.9470 0.3043
vn -0.0000 -0.9434 0.3315
vn 0.1089 -0.9926 0.0537
vn 0.1886 -0.9497 0.2499
vn -0.0000 -0.9941 0.1088
vn 0.2522 -0.9522 0.1726
vn 0.2870 -0.9542 0.0841
vn 0.2932 -0.9561 -0.0000
vn 0.2522 -0.9521 -0.1726
vn 0.5080 -0.7783 -0.3691
vn 0.5972 -0.7783 -0.1941
vn 0.3691 -0.7783 -0.5080
vn 0.2522 -0.9521 -0.1727
vn 0.1033 -0.9469 -0.3044
vn 0.1940 -0.7783 -0.5972
vn 0.1886 -0.9497 -0.2500
vn -0.0000 -0.9434 -0.3316
vn -0.0000 -0.7783 -0.6279
vn 0.1033 -0.9469 0.3044
vn 0.1940 -0.7783 0.5972
vn -0.0000 -0.7783 0.6279
vn -0.0000 -0.9434 0.3316
vn 0.1886 -0.9497 0.2500
vn 0.3691 -0.7783 0.5080
vn 0.1941 -0.7783 0.5972
vn 0.2522 -0.9521 0.1727
vn 0.5080 -0.7783 0.3691
vn 0.5972 -0.7783 0.1940
vn 0.2522 -0.9521 0.1726
vn 0.2932 -0.9560 -0.0000
vn 0.6279 -0.7783 -0.0000
vn 0.2871 -0.9542 0.0841
vn 0.2871 -0.9542 -0.0841
vn 0.5972 -0.7783 -0.1940
vn 0.5081 -0.7782 -0.3691
vn 0.7034 -0.4940 -0.5110
vn 0.8269 -0.4940 -0.2687
vn 0.5973 -0.7782 -0.1941
vn 0.3691 -0.7782 -0.5081
vn 0.5111 -0.4940 -0.7034
vn 0.7034 -0.4940 -0.5111
vn 0.5081 -0.7782 -0.3692
vn 0.1941 -0.7782 -0.5973
vn 0.2687 -0.4940 -0.8269
vn 0.5110 -0.4940 -0.7034
vn -0.0000 -0.7782 -0.6280
vn -0.0000 -0.4940 -0.8694
vn 0.2686 -0.4940 -0.8269
vn 0.1941 -0.7782 0.5973
vn 0.2686 -0.4940 0.8269
vn -0.0000 -0.4940 0.8694
vn -0.0000 -0.7782 0.6280
vn 0.3691 -0.7782 0.5081
vn 0.5110 -0.4940 0.7034
vn 0.2687 -0.4940 0.8269
vn 0.5081 -0.7782 0.3691
vn 0.7034 -0.4940 0.5111
vn 0.5111 -0.4940 0.7034
vn 0.5973 -0.7782 0.1941
vn 0.8269 -0.4940 0.2687
vn 0.7034 -0.4940 0.5110
vn 0.6280 -0.7782 -0.0000
vn 0.8694 -0.4940 -0.0000
vn 0.8269 -0.4940 0.2686
vn 0.8269 -0.4940 -0.2686
vn 0.7943 -0.1898 -0.5771
vn 0.9338 -0.1898 -0.3034
vn 0.5771 -0.1898 -0.7943
vn 0.3034 -0.1898 -0.9338
vn -0.0000 -0.4940 -0.8695
vn -0.0000 -0.1898 -0.9818
vn -0.0000 -0.4940 0.8695
vn 0.3034 -0.1898 0.9338
vn -0.0000 -0.1898 0.9818
vn 0.5771 -0.1898 0.7943
vn 0.7943 -0.1898 0.5771
vn 0.9338 -0.1898 0.3034
vn 0.8695 -0.4940 -0.0000
vn 0.9818 -0.1898 -0.0000
vn 0.9338 -0.1897 -0.3034
vn 0.7943 -0.1897 -0.5771
vn 0.8060 0.0869 -0.5855
vn 0.9474 0.0869 -0.3079
vn 0.5771 -0.1897 -0.7943
vn 0.5856 0.0869 -0.8059
vn 0.8059 0.0869 -0.5856
vn 0.3034 -0.1897 -0.9338
vn 0.3079 0.0869 -0.9474
vn 0.5855 0.0869 -0.8060
vn -0.0000 -0.1897 -0.9818
vn 0.0001 0.0869 -0.9962
vn 0.3078 0.0869 -0.9475
vn -0.0000 -0.1897 0.9818
vn 0.3034 -0.1897 0.9338
vn 0.3078 0.0869 0.9475
vn 0.0001 0.0869 0.9962
vn 0.5771 -0.1897 0.7943
vn 0.5855 0.0869 0.8060
vn 0.3079 0.0869 0.9474
vn 0.7943 -0.1897 0.5771
vn 0.8059 0.0869 0.5856
vn 0.5856 0.0869 0.8059
vn 0.9338 -0.1897 0.3034
vn 0.9474 0.0869 0.3079
vn 0.8060 0.0869 0.5855
vn 0.9818 -0.1897 -0.0000
vn 0.9962 0.0869 0.0001
vn 0.9475 0.0869 0.3078
vn 0.9475 0.0869 -0.3078
vn 0.9962 0.0869 -0.0000
vn 0.9474 0.0870 -0.3079
vn 0.8060 0.0870 -0.5855
vn 0.7582 0.3489 -0.5508
vn 0.8913 0.3489 -0.2896
vn 0.8059 0.0870 -0.5856
vn 0.5856 0.0870 -0.8059
vn 0.5509 0.3489 -0.7581
vn 0.7582 0.3489 -0.5509
vn 0.5855 0.0870 -0.8060
vn 0.3079 0.0870 -0.9474
vn 0.2896 0.3489 -0.8913
vn 0.5508 0.3489 -0.7582
vn 0.3078 0.0870 -0.9475
vn -0.0000 0.0870 -0.9962
vn -0.0000 0.3489 -0.9371
vn -0.0000 0.0870 0.9962
vn 0.3078 0.0870 0.9475
vn 0.2896 0.3489 0.8913
vn -0.0000 0.3489 0.9371
vn 0.3079 0.0870 0.9474
vn 0.5855 0.0870 0.8060
vn 0.5508 0.3489 0.7582
vn 0.5856 0.0870 0.8059
vn 0.8059 0.0870 0.5856
vn 0.7581 0.3489 0.5509
vn 0.5509 0.3489 0.7582
vn 0.8060 0.0870 0.5855
vn 0.9474 0.0870 0.3079
vn 0.8913 0.3489 0.2896
vn 0.7582 0.3489 0.5508
vn 0.9475 0.0870 0.3078
vn 0.9962 0.0870 -0.0000
vn 0.9371 0.3489 -0.0000
vn 0.9475 0.0870 -0.3078
vn 0.8912 0.3490 -0.2896
vn 0.7582 0.3490 -0.5508
vn 0.6703 0.5599 -0.4870
vn 0.7880 0.5599 -0.2561
vn 0.7581 0.3490 -0.5509
vn 0.5509 0.3490 -0.7581
vn 0.4871 0.5599 -0.6703
vn 0.6703 0.5599 -0.4871
vn 0.5508 0.3490 -0.7582
vn 0.2896 0.3490 -0.8912
vn 0.2561 0.5599 -0.7880
vn 0.4870 0.5599 -0.6703
vn 0.2895 0.3490 -0.8913
vn -0.0000 0.3490 -0.9371
vn -0.0000 0.5599 -0.8286
vn 0.2560 0.5599 -0.7880
vn -0.0000 0.3490 0.9371
vn 0.2896 0.3490 0.8913
vn 0.3001 0.5324 0.7915
vn -0.0000 0.4775 0.8787
vn 0.2896 0.3490 0.8912
vn 0.5508 0.3490 0.7582
vn 0.4870 0.5599 0.6703
vn 0.3002 0.5325 0.7914
vn 0.5509 0.3490 0.7581
vn 0.7581 0.3490 0.5509
vn 0.6703 0.5599 0.4871
vn 0.4871 0.5599 0.6703
vn 0.7582 0.3490 0.5508
vn 0.8912 0.3490 0.2896
vn 0.7880 0.5599 0.2561
vn 0.6703 0.5599 0.4870
vn 0.8913 0.3490 0.2895
vn 0.9371 0.3490 -0.0000
vn 0.8286 0.5599 -0.0000
vn 0.7880 0.5599 0.2560
vn 0.8913 0.3490 -0.2896
vn 0.7880 0.5599 -0.2560
vn 0.5898 0.6843 -0.4288
vn 0.6900 0.6881 -0.2246
vn 0.4302 0.6811 -0.5924
vn 0.5898 0.6843 -0.4289
vn 0.2267 0.6791 -0.6981
vn 0.4301 0.6811 -0.5925
vn -0.0000 0.5599 -0.8285
vn -0.0000 0.6784 -0.7347
vn 0.2267 0.6791 -0.6982
vn 0.4185 0.7025 0.5757
vn 0.3246 0.6992 0.6370
vn 0.5781 0.6997 0.4197
vn 0.6828 0.6962 0.2215
vn 0.8285 0.5599 -0.0000
vn 0.7217 0.6922 -0.0003
vn 0.6900 0.6881 -0.2245
vn 0.7217 0.6922 -0.0004
vn 0.5501 0.7319 -0.4021
vn 0.6430 0.7361 -0.2114
vn 0.4302 0.6812 -0.5924
vn 0.4015 0.7285 -0.5550
vn 0.4301 0.6812 -0.5924
vn 0.2117 0.7263 -0.6539
vn 0.4014 0.7285 -0.5550
vn -0.0000 0.7256 -0.6881
vn 0.4184 0.7025 0.5757
vn 0.3887 0.7518 0.5327
vn 0.3017 0.7489 0.5900
vn 0.4185 0.7025 0.5756
vn 0.5781 0.6998 0.4197
vn 0.5373 0.7488 0.3880
vn 0.3888 0.7518 0.5326
vn 0.6828 0.6963 0.2215
vn 0.6351 0.7450 0.2040
vn 0.5374 0.7488 0.3880
vn 0.6719 0.7406 -0.0024
vn 0.6352 0.7450 0.2039
vn 0.6430 0.7361 -0.2113
vn 0.6720 0.7406 -0.0024
vn 0.5555 0.7214 -0.4135
vn 0.6517 0.7253 -0.2217
vn 0.4015 0.7286 -0.5550
vn 0.4043 0.7182 -0.5664
vn 0.5555 0.7214 -0.4136
vn 0.2128 0.7161 -0.6648
vn -0.0000 0.7154 -0.6988
vn 0.3998 0.7405 0.5402
vn 0.2442 0.7420 0.6243
vn 0.5511 0.7376 0.3903
vn 0.6352 0.7449 0.2040
vn 0.6490 0.7338 0.2008
vn 0.5511 0.7376 0.3902
vn 0.6838 0.7296 -0.0100
vn 0.6490 0.7339 0.2008
vn 0.6720 0.7406 -0.0025
vn 0.6517 0.7253 -0.2218
vn 0.6219 0.6250 -0.4718
vn 0.7237 0.6410 -0.2557
vn 0.4556 0.6117 -0.6467
vn 0.6219 0.6250 -0.4719
vn 0.2408 0.6029 -0.7606
vn 0.4555 0.6118 -0.6467
vn -0.0000 0.7153 -0.6988
vn -0.0000 0.5999 -0.8001
vn -0.0000 0.7442 0.6680
vn 0.2442 0.7420 0.6244
vn 0.2257 0.7048 0.6726
vn -0.0000 0.7070 0.7072
vn 0.2443 0.7420 0.6243
vn 0.4312 0.6982 0.5715
vn 0.2258 0.7048 0.6725
vn 0.3999 0.7405 0.5402
vn 0.5510 0.7376 0.3903
vn 0.5976 0.6876 0.4124
vn 0.4313 0.6982 0.5715
vn 0.6489 0.7339 0.2008
vn 0.7087 0.6738 0.2089
vn 0.5976 0.6876 0.4123
vn 0.7529 0.6578 -0.0210
vn 0.7087 0.6739 0.2088
vn 0.6838 0.7296 -0.0101
vn 0.7237 0.6410 -0.2556
vn 0.7353 0.3864 -0.5569
vn 0.8482 0.4358 -0.3011
vn 0.5423 0.3440 -0.7665
vn 0.7352 0.3864 -0.5569
vn 0.2879 0.3152 -0.9043
vn 0.5422 0.3440 -0.7666
vn -0.0000 0.5998 -0.8001
vn -0.0000 0.3050 -0.9524
vn 0.2878 0.3152 -0.9043
vn 0.2541 0.6145 0.7469
vn 0.0001 0.6203 0.7844
vn 0.2258 0.7048 0.6726
vn 0.4875 0.5974 0.6368
vn 0.2541 0.6145 0.7468
vn 0.6803 0.5694 0.4615
vn 0.4875 0.5974 0.6367
vn 0.7088 0.6738 0.2089
vn 0.8141 0.5316 0.2338
vn 0.6803 0.5694 0.4614
vn 0.7088 0.6738 0.2088
vn 0.8736 0.4859 -0.0283
vn 0.8141 0.5316 0.2337
vn 0.7238 0.6410 -0.2556
vn 0.8735 0.4859 -0.0283
vn 0.7300 0.3762 -0.5706
vn 0.5348 0.3350 -0.7757
vn 0.3676 0.7167 -0.5927
vn 0.5402 0.7360 -0.4082
vn 0.5348 0.3351 -0.7757
vn 0.2827 0.3102 -0.9077
vn 0.1933 0.7062 -0.6811
vn 0.3675 0.7166 -0.5928
vn -0.0000 0.3016 -0.9534
vn -0.0000 0.7026 -0.7116
vn -0.0000 0.6301 0.7765
vn 0.2595 0.6229 0.7380
vn 0.1920 0.8466 0.4964
vn -0.0000 0.8502 0.5264
vn 0.2596 0.6229 0.7380
vn 0.4973 0.6015 0.6252
vn 0.3655 0.8361 0.4090
vn 0.1921 0.8466 0.4964
vn 0.6921 0.5674 0.4461
vn 0.5035 0.8198 0.2728
vn 0.6922 0.5674 0.4461
vn 0.8247 0.5233 0.2145
vn 0.5926 0.7992 0.1007
vn 0.5036 0.8198 0.2727
vn 0.8247 0.5233 0.2144
vn 0.8809 0.4709 -0.0474
vn 0.6285 0.7638 -0.1469
vn 0.8126 0.4899 -0.3157
vn 0.6285 0.7638 -0.1470
vn 0.8809 0.4709 -0.0475
vn 0.7353 0.3863 -0.5569
vn 0.7916 0.1548 -0.5911
vn 0.9186 0.2316 -0.3203
vn 0.5423 0.3439 -0.7666
vn 0.5800 0.0910 -0.8095
vn 0.2879 0.3151 -0.9043
vn 0.3063 0.0488 -0.9507
vn 0.2878 0.3151 -0.9044
vn -0.0000 0.3049 -0.9524
vn -0.0000 0.0340 -0.9994
vn 0.0001 0.6202 0.7844
vn 0.2753 0.5280 0.8034
vn -0.0000 0.5378 0.8431
vn 0.5291 0.4986 0.6866
vn 0.2753 0.5279 0.8034
vn 0.7398 0.4509 0.4994
vn 0.5292 0.4986 0.6866
vn 0.8861 0.3873 0.2545
vn 0.7398 0.4509 0.4993
vn 0.9497 0.3120 -0.0278
vn 0.8862 0.3873 0.2545
vn 0.9186 0.2316 -0.3202
vn 0.7300 0.3761 -0.5706
vn 0.7916 0.1548 -0.5912
vn 0.5801 0.0910 -0.8095
vn 0.7300 0.3761 -0.5707
vn 0.3064 0.0488 -0.9507
vn 0.0001 0.0340 -0.9994
vn 0.2826 0.3102 -0.9077
vn 0.0001 0.5378 0.8431
vn 0.2595 0.6228 0.7381
vn 0.4973 0.6014 0.6253
vn 0.2596 0.6228 0.7381
vn 0.6921 0.5674 0.4462
vn 0.4974 0.6014 0.6253
vn 0.8247 0.5232 0.2145
vn 0.8810 0.4708 -0.0474
vn 0.8248 0.5232 0.2145
vn 0.9497 0.3120 -0.0279
vn 0.8810 0.4708 -0.0475
vn 0.5402 0.7360 -0.4081
vn 0.8126 0.4900 -0.3157
vn 0.5402 0.7359 -0.4081
vn -0.0000 -0.9941 -0.1088
vn -0.1089 -0.9926 -0.0537
vn -0.1334 -0.9911 -0.0000
vn -0.2870 -0.9542 -0.0841
vn -0.2522 -0.9522 -0.1726
vn -0.1886 -0.9497 -0.2499
vn -0.1033 -0.9470 -0.3043
vn -0.1032 -0.9470 0.3043
vn -0.1089 -0.9926 0.0537
vn -0.1033 -0.9470 0.3043
vn -0.1886 -0.9497 0.2499
vn -0.2522 -0.9522 0.1726
vn -0.2870 -0.9542 0.0841
vn -0.2932 -0.9561 -0.0000
vn -0.2522 -0.9521 -0.1726
vn -0.5972 -0.7783 -0.1940
vn -0.5080 -0.7783 -0.3691
vn -0.2522 -0.9521 -0.1727
vn -0.3691 -0.7783 -0.5080
vn -0.1033 -0.9469 -0.3044
vn -0.1886 -0.9497 -0.2500
vn -0.1941 -0.7783 -0.5972
vn -0.1940 -0.7783 -0.5972
vn -0.1033 -0.9469 0.3044
vn -0.1940 -0.7783 0.5972
vn -0.1886 -0.9497 0.2500
vn -0.3691 -0.7783 0.5080
vn -0.2522 -0.9521 0.1727
vn -0.5080 -0.7783 0.3691
vn -0.2522 -0.9521 0.1726
vn -0.5972 -0.7783 0.1941
vn -0.2932 -0.9560 -0.0000
vn -0.2871 -0.9542 0.0841
vn -0.5972 -0.7783 0.1940
vn -0.6279 -0.7783 -0.0000
vn -0.2871 -0.9542 -0.0841
vn -0.5081 -0.7782 -0.3691
vn -0.5973 -0.7782 -0.1941
vn -0.8269 -0.4940 -0.2687
vn -0.7034 -0.4940 -0.5110
vn -0.3691 -0.7782 -0.5081
vn -0.7034 -0.4940 -0.5111
vn -0.5111 -0.4940 -0.7034
vn -0.1941 -0.7782 -0.5973
vn -0.5110 -0.4940 -0.7034
vn -0.2687 -0.4940 -0.8269
vn -0.2686 -0.4940 -0.8269
vn -0.1941 -0.7782 0.5973
vn -0.2686 -0.4940 0.8269
vn -0.3691 -0.7782 0.5081
vn -0.2687 -0.4940 0.8269
vn -0.5110 -0.4940 0.7034
vn -0.5081 -0.7782 0.3691
vn -0.5111 -0.4940 0.7034
vn -0.7034 -0.4940 0.5111
vn -0.5973 -0.7782 0.1941
vn -0.7034 -0.4940 0.5110
vn -0.8269 -0.4940 0.2687
vn -0.6280 -0.7782 -0.0000
vn -0.8269 -0.4940 0.2686
vn -0.8694 -0.4940 -0.0000
vn -0.8269 -0.4940 -0.2686
vn -0.9338 -0.1898 -0.3034
vn -0.7943 -0.1898 -0.5771
vn -0.5771 -0.1898 -0.7943
vn -0.3034 -0.1898 -0.9338
vn -0.3034 -0.1898 0.9338
vn -0.5771 -0.1898 0.7943
vn -0.7943 -0.1898 0.5771
vn -0.9338 -0.1898 0.3034
vn -0.9818 -0.1898 -0.0000
vn -0.8695 -0.4940 -0.0000
vn -0.9338 -0.1897 -0.3034
vn -0.9474 0.0869 -0.3079
vn -0.8060 0.0869 -0.5855
vn -0.7943 -0.1897 -0.5771
vn -0.8059 0.0869 -0.5856
vn -0.5856 0.0869 -0.8059
vn -0.5771 -0.1897 -0.7943
vn -0.5855 0.0869 -0.8060
vn -0.3079 0.0869 -0.9474
vn -0.3034 -0.1897 -0.9338
vn -0.3078 0.0869 -0.9475
vn -0.0001 0.0869 -0.9962
vn -0.0001 0.0869 0.9962
vn -0.3078 0.0869 0.9475
vn -0.3034 -0.1897 0.9338
vn -0.3079 0.0869 0.9474
vn -0.5855 0.0869 0.8060
vn -0.5771 -0.1897 0.7943
vn -0.5856 0.0869 0.8059
vn -0.8059 0.0869 0.5856
vn -0.7943 -0.1897 0.5771
vn -0.8060 0.0869 0.5855
vn -0.9474 0.0869 0.3079
vn -0.9338 -0.1897 0.3034
vn -0.9475 0.0869 0.3078
vn -0.9962 0.0869 0.0001
vn -0.9818 -0.1897 -0.0000
vn -0.9962 0.0869 -0.0001
vn -0.9475 0.0869 -0.3078
vn -0.9474 0.0870 -0.3079
vn -0.8913 0.3489 -0.2896
vn -0.7582 0.3489 -0.5508
vn -0.8060 0.0870 -0.5855
vn -0.8059 0.0870 -0.5856
vn -0.7581 0.3489 -0.5509
vn -0.5509 0.3489 -0.7582
vn -0.5856 0.0870 -0.8059
vn -0.5855 0.0870 -0.8060
vn -0.5508 0.3489 -0.7582
vn -0.2896 0.3489 -0.8913
vn -0.3079 0.0870 -0.9474
vn -0.3078 0.0870 -0.9475
vn -0.2896 0.3489 0.8913
vn -0.3078 0.0870 0.9475
vn -0.3079 0.0870 0.9474
vn -0.5508 0.3489 0.7582
vn -0.5855 0.0870 0.8060
vn -0.5856 0.0870 0.8059
vn -0.5509 0.3489 0.7581
vn -0.7582 0.3489 0.5509
vn -0.8059 0.0870 0.5856
vn -0.8060 0.0870 0.5855
vn -0.7582 0.3489 0.5508
vn -0.8913 0.3489 0.2896
vn -0.9474 0.0870 0.3079
vn -0.9475 0.0870 0.3078
vn -0.9371 0.3489 -0.0000
vn -0.9962 0.0870 -0.0000
vn -0.9475 0.0870 -0.3078
vn -0.8912 0.3490 -0.2896
vn -0.7880 0.5599 -0.2561
vn -0.6703 0.5599 -0.4870
vn -0.7582 0.3490 -0.5508
vn -0.7581 0.3490 -0.5509
vn -0.6703 0.5599 -0.4871
vn -0.4871 0.5599 -0.6703
vn -0.5509 0.3490 -0.7581
vn -0.5508 0.3490 -0.7582
vn -0.4870 0.5599 -0.6703
vn -0.2561 0.5599 -0.7880
vn -0.2896 0.3490 -0.8912
vn -0.2896 0.3490 -0.8913
vn -0.2560 0.5599 -0.7880
vn -0.3001 0.5325 0.7915
vn -0.2895 0.3490 0.8913
vn -0.2896 0.3490 0.8912
vn -0.3002 0.5325 0.7914
vn -0.4870 0.5599 0.6703
vn -0.5508 0.3490 0.7582
vn -0.5509 0.3490 0.7581
vn -0.4871 0.5599 0.6703
vn -0.6703 0.5599 0.4871
vn -0.7581 0.3490 0.5509
vn -0.7582 0.3490 0.5508
vn -0.6703 0.5599 0.4870
vn -0.7880 0.5599 0.2561
vn -0.8912 0.3490 0.2896
vn -0.8913 0.3490 0.2896
vn -0.7880 0.5599 0.2560
vn -0.8286 0.5599 -0.0000
vn -0.9371 0.3490 -0.0000
vn -0.7880 0.5599 -0.2560
vn -0.8913 0.3490 -0.2895
vn -0.6900 0.6881 -0.2246
vn -0.5898 0.6843 -0.4288
vn -0.5898 0.6843 -0.4289
vn -0.4302 0.6811 -0.5924
vn -0.4302 0.6811 -0.5925
vn -0.2267 0.6791 -0.6981
vn -0.2267 0.6791 -0.6982
vn -0.3246 0.6992 0.6370
vn -0.4185 0.7025 0.5757
vn -0.5781 0.6997 0.4197
vn -0.6828 0.6962 0.2215
vn -0.7217 0.6922 -0.0003
vn -0.8285 0.5599 -0.0000
vn -0.6900 0.6881 -0.2245
vn -0.6430 0.7361 -0.2114
vn -0.5501 0.7319 -0.4021
vn -0.4015 0.7285 -0.5550
vn -0.4302 0.6812 -0.5924
vn -0.4301 0.6812 -0.5925
vn -0.4014 0.7285 -0.5550
vn -0.2117 0.7263 -0.6539
vn -0.0000 0.7256 -0.6882
vn -0.3017 0.7489 0.5900
vn -0.3887 0.7518 0.5327
vn -0.4184 0.7025 0.5757
vn -0.4185 0.7025 0.5756
vn -0.3888 0.7518 0.5326
vn -0.5373 0.7488 0.3880
vn -0.5781 0.6998 0.4197
vn -0.5374 0.7488 0.3880
vn -0.6351 0.7450 0.2040
vn -0.6352 0.7450 0.2039
vn -0.6719 0.7406 -0.0024
vn -0.7217 0.6922 -0.0004
vn -0.6720 0.7406 -0.0024
vn -0.6430 0.7361 -0.2113
vn -0.6517 0.7253 -0.2217
vn -0.5555 0.7214 -0.4135
vn -0.5555 0.7214 -0.4136
vn -0.4043 0.7182 -0.5664
vn -0.4015 0.7286 -0.5550
vn -0.2128 0.7161 -0.6648
vn -0.2442 0.7420 0.6243
vn -0.3998 0.7405 0.5402
vn -0.5510 0.7376 0.3903
vn -0.5511 0.7376 0.3902
vn -0.6490 0.7338 0.2008
vn -0.6352 0.7450 0.2040
vn -0.6490 0.7339 0.2008
vn -0.6838 0.7296 -0.0100
vn -0.6720 0.7406 -0.0025
vn -0.6517 0.7253 -0.2218
vn -0.7237 0.6410 -0.2557
vn -0.6219 0.6250 -0.4718
vn -0.6219 0.6250 -0.4719
vn -0.4556 0.6118 -0.6467
vn -0.4555 0.6117 -0.6467
vn -0.2408 0.6029 -0.7606
vn -0.2257 0.7048 0.6726
vn -0.2442 0.7420 0.6244
vn -0.2443 0.7420 0.6243
vn -0.2258 0.7048 0.6725
vn -0.4312 0.6982 0.5715
vn -0.3999 0.7405 0.5402
vn -0.4313 0.6982 0.5715
vn -0.5976 0.6876 0.4124
vn -0.5511 0.7376 0.3903
vn -0.5976 0.6876 0.4123
vn -0.7087 0.6739 0.2089
vn -0.7087 0.6739 0.2088
vn -0.7529 0.6578 -0.0210
vn -0.6838 0.7296 -0.0101
vn -0.7237 0.6410 -0.2556
vn -0.8482 0.4358 -0.3011
vn -0.7353 0.3864 -0.5569
vn -0.7352 0.3864 -0.5569
vn -0.5423 0.3440 -0.7665
vn -0.4556 0.6117 -0.6467
vn -0.5422 0.3440 -0.7666
vn -0.2879 0.3152 -0.9043
vn -0.2878 0.3152 -0.9043
vn -0.0000 0.6203 0.7844
vn -0.2541 0.6145 0.7469
vn -0.2258 0.7048 0.6726
vn -0.2541 0.6145 0.7468
vn -0.4875 0.5974 0.6368
vn -0.4875 0.5974 0.6367
vn -0.6803 0.5694 0.4615
vn -0.6803 0.5694 0.4614
vn -0.8141 0.5316 0.2338
vn -0.7088 0.6738 0.2089
vn -0.7088 0.6738 0.2088
vn -0.8141 0.5316 0.2337
vn -0.8735 0.4859 -0.0283
vn -0.7238 0.6410 -0.2556
vn -0.7300 0.3761 -0.5707
vn -0.5401 0.7360 -0.4082
vn -0.3675 0.7167 -0.5927
vn -0.5348 0.3351 -0.7757
vn -0.3675 0.7166 -0.5927
vn -0.1933 0.7062 -0.6811
vn -0.2827 0.3102 -0.9077
vn -0.2826 0.3102 -0.9077
vn -0.1920 0.8466 0.4964
vn -0.2595 0.6229 0.7380
vn -0.2596 0.6229 0.7380
vn -0.1921 0.8466 0.4964
vn -0.3655 0.8361 0.4090
vn -0.4973 0.6015 0.6252
vn -0.5035 0.8198 0.2728
vn -0.6921 0.5674 0.4461
vn -0.6922 0.5674 0.4461
vn -0.5036 0.8198 0.2727
vn -0.5926 0.7992 0.1007
vn -0.8247 0.5233 0.2145
vn -0.8247 0.5233 0.2144
vn -0.6285 0.7638 -0.1469
vn -0.8809 0.4709 -0.0474
vn -0.8126 0.4899 -0.3157
vn -0.8809 0.4709 -0.0475
vn -0.6285 0.7638 -0.1470
vn -0.9186 0.2316 -0.3203
vn -0.7916 0.1548 -0.5911
vn -0.7353 0.3863 -0.5569
vn -0.7915 0.1548 -0.5912
vn -0.5800 0.0910 -0.8095
vn -0.5423 0.3439 -0.7666
vn -0.3063 0.0488 -0.9507
vn -0.2879 0.3151 -0.9043
vn -0.2878 0.3151 -0.9044
vn -0.0001 0.6202 0.7844
vn -0.2753 0.5280 0.8034
vn -0.5291 0.4986 0.6866
vn -0.7398 0.4509 0.4994
vn -0.7398 0.4509 0.4993
vn -0.8861 0.3873 0.2545
vn -0.9497 0.3120 -0.0278
vn -0.8736 0.4859 -0.0283
vn -0.9186 0.2316 -0.3202
vn -0.5348 0.3350 -0.7757
vn -0.5801 0.0910 -0.8095
vn -0.0001 0.0340 -0.9994
vn -0.0001 0.5378 0.8431
vn -0.0001 0.6301 0.7765
vn -0.2595 0.6228 0.7381
vn -0.2753 0.5279 0.8034
vn -0.2596 0.6228 0.7381
vn -0.4973 0.6014 0.6253
vn -0.4974 0.6014 0.6252
vn -0.6921 0.5674 0.4462
vn -0.8248 0.5232 0.2145
vn -0.8862 0.3873 0.2545
vn -0.8810 0.4708 -0.0474
vn -0.9497 0.3120 -0.0279
vn -0.8810 0.4708 -0.0475
vn -0.5402 0.7360 -0.4081
vn -0.8126 0.4900 -0.3157
vn -0.7300 0.3762 -0.5707
vn 0.5401 0.7360 -0.4082
vn 0.3675 0.7167 -0.5927
vn 0.1934 0.9046 -0.3800
vn 0.2799 0.9166 -0.2856
vn 0.1017 0.8981 -0.4279
vn 0.1933 0.9046 -0.3800
vn 0.1932 0.7062 -0.6811
vn -0.0000 0.7027 -0.7115
vn -0.0000 0.8951 -0.4460
vn -0.0000 0.8503 0.5264
vn 0.1920 0.8466 0.4963
vn 0.0958 0.9797 0.1763
vn -0.0000 0.9813 0.1925
vn 0.1921 0.8467 0.4963
vn 0.3654 0.8362 0.4090
vn 0.1836 0.9739 0.1334
vn 0.3655 0.8362 0.4090
vn 0.5035 0.8198 0.2727
vn 0.2560 0.9645 0.0651
vn 0.1837 0.9739 0.1334
vn 0.5925 0.7992 0.1007
vn 0.3035 0.9526 -0.0214
vn 0.2560 0.9645 0.0650
vn 0.3221 0.9358 -0.1432
vn -0.5401 0.7360 -0.4081
vn -0.2799 0.9166 -0.2856
vn -0.1934 0.9046 -0.3799
vn -0.1933 0.9046 -0.3800
vn -0.1017 0.8981 -0.4279
vn -0.1920 0.8466 0.4963
vn -0.0958 0.9797 0.1763
vn -0.3655 0.8362 0.4090
vn -0.1921 0.8467 0.4963
vn -0.1836 0.9739 0.1334
vn -0.5035 0.8198 0.2727
vn -0.1837 0.9739 0.1334
vn -0.2560 0.9645 0.0651
vn -0.5925 0.7992 0.1007
vn -0.3035 0.9526 -0.0214
vn -0.3221 0.9358 -0.1432
vn 0.2799 0.9166 -0.2855
vn 0.1933 0.9046 -0.3799
vn 0.0759 0.9791 -0.1888
vn 0.1017 0.8981 -0.4278
vn -0.0000 0.9778 -0.2096
vn 0.0759 0.9791 -0.1889
vn -0.0000 0.8951 -0.4459
vn -0.0000 0.9813 0.1924
vn 0.0957 0.9797 0.1762
vn -0.0000 0.9993 -0.0375
vn 0.1836 0.9739 0.1333
vn 0.0717 0.9959 -0.0547
vn 0.3034 0.9526 -0.0214
vn 0.0815 0.9899 -0.1163
vn -0.1933 0.9046 -0.3799
vn -0.2799 0.9166 -0.2855
vn -0.0759 0.9791 -0.1888
vn -0.1017 0.8981 -0.4278
vn -0.0759 0.9791 -0.1889
vn -0.0957 0.9797 0.1762
vn -0.1837 0.9739 0.1333
vn -0.0958 0.9797 0.1762
vn -0.0717 0.9959 -0.0547
vn -0.2560 0.9645 0.0650
vn -0.1836 0.9739 0.1333
vn -0.3034 0.9526 -0.0214
vn -0.0815 0.9899 -0.1163
vn -0.2798 0.9166 -0.2855
vn -0.3221 0.9358 -0.1433
vn -0.0815 0.9899 -0.1164
vn -0.0000 0.9993 -0.0376
vn -0.0000 0.9924 -0.1229
vn 0.0814 0.9899 -0.1163
vn -0.0000 0.9778 -0.2095
vn -0.0814 0.9899 -0.1163
vn -0.0758 0.9791 -0.1888
vn 0.3442 -0.1987 0.9176
vn 0.1987 -0.3442 0.9176
vn 0.3154 -0.5463 0.7760
vn 0.5463 -0.3154 0.7760
vn -0.0000 -0.3975 0.9176
vn -0.0000 -0.6308 0.7760
vn -0.1987 -0.3442 0.9176
vn -0.3154 -0.5463 0.7760
vn -0.3442 -0.1987 0.9176
vn -0.5463 -0.3154 0.7760
vn -0.3975 -0.0000 0.9176
vn -0.6308 -0.0000 0.7760
vn -0.3442 0.1987 0.9176
vn -0.5463 0.3154 0.7760
vn -0.1987 0.3442 0.9176
vn -0.3154 0.5463 0.7760
vn -0.0000 0.3975 0.9176
vn -0.0000 0.6308 0.7760
vn 0.1987 0.3442 0.9176
vn 0.3154 0.5463 0.7760
vn 0.3442 0.1987 0.9176
vn 0.5463 0.3154 0.7760
vn 0.3975 -0.0000 0.9176
vn 0.6308 -0.0000 0.7760
vn 0.4141 -0.7172 0.5604
vn 0.7172 -0.4141 0.5604
vn -0.0000 -0.8282 0.5604
vn -0.4141 -0.7172 0.5604
vn -0.7172 -0.4141 0.5604
vn -0.8282 -0.0000 0.5604
vn -0.7172 0.4141 0.5604
vn -0.4141 0.7172 0.5604
vn -0.0000 0.8282 0.5604
vn 0.4141 0.7172 0.5605
vn 0.7172 0.4141 0.5604
vn 0.8282 -0.0000 0.5604
vn 0.4780 -0.8279 0.2935
vn 0.8279 -0.4780 0.2935
vn -0.0000 -0.9560 0.2935
vn -0.4780 -0.8279 0.2935
vn -0.8279 -0.4780 0.2935
vn -0.9560 -0.0000 0.2935
vn -0.8279 0.4780 0.2935
vn -0.4780 0.8279 0.2935
vn -0.0000 0.9560 0.2935
vn 0.4780 0.8279 0.2935
vn 0.8279 0.4780 0.2935
vn 0.9560 -0.0000 0.2935
vn 0.5000 -0.8660 -0.0000
vn 0.8660 -0.5000 -0.0000
vn -0.0000 -1.0000 -0.0000
vn -0.5000 -0.8660 -0.0000
vn -0.8660 -0.5000 -0.0000
vn -1.0000 -0.0000 -0.0000
vn -0.8660 0.5000 -0.0000
vn -0.5000 0.8660 -0.0000
vn -0.0000 1.0000 -0.0000
vn 0.5000 0.8660 -0.0000
vn 0.8660 0.5000 -0.0000
vn 1.0000 -0.0000 -0.0000
vn 0.4780 -0.8279 -0.2935
vn 0.8279 -0.4780 -0.2935
vn -0.0000 -0.9560 -0.2935
vn -0.4780 -0.8279 -0.2935
vn -0.8279 -0.4780 -0.2935
vn -0.9560 -0.0000 -0.2935
vn -0.8279 0.4780 -0.2935
vn -0.4780 0.8279 -0.2935
vn -0.0000 0.9560 -0.2935
vn 0.4780 0.8279 -0.2935
vn 0.8279 0.4780 -0.2935
vn 0.9560 -0.0000 -0.2935
vn 0.4455 -0.7716 -0.4540
vn 0.7716 -0.4455 -0.4540
vn -0.0000 -0.8910 -0.4540
vn -0.4455 -0.7716 -0.4540
vn -0.7716 -0.4455 -0.4540
vn -0.8910 -0.0000 -0.4540
vn -0.7716 0.4455 -0.4540
vn -0.4455 0.7716 -0.4540
vn -0.0000 0.8910 -0.4540
vn 0.4455 0.7716 -0.4540
vn 0.7716 0.4455 -0.4540
vn 0.8910 -0.0000 -0.4540
vn -0.0000 -0.0000 1.0000
vn -0.3075 0.6903 0.6550
vn -0.2672 0.7462 0.6097
vn -0.5085 0.7565 0.4113
vn -0.5800 0.6466 0.4956
vn -0.1543 0.8308 0.5348
vn -0.2936 0.9174 0.2688
vn -0.5084 0.7565 0.4113
vn -0.0000 0.8617 0.5074
vn -0.0000 0.9762 0.2167
vn -0.2935 0.9174 0.2688
vn 0.1543 0.8308 0.5348
vn 0.2935 0.9174 0.2688
vn 0.1543 0.8307 0.5348
vn 0.2672 0.7462 0.6097
vn 0.5084 0.7565 0.4113
vn 0.2936 0.9174 0.2688
vn 0.3075 0.6903 0.6550
vn 0.5800 0.6466 0.4955
vn -0.5800 0.6466 0.4955
vn -0.7002 0.6928 0.1724
vn -0.7902 0.5398 0.2901
vn -0.4043 0.9143 -0.0238
vn -0.0000 0.9763 0.2166
vn -0.0000 0.9954 -0.0956
vn 0.4043 0.9143 -0.0238
vn 0.5085 0.7565 0.4113
vn 0.7002 0.6928 0.1724
vn 0.7902 0.5398 0.2901
vn -0.8235 0.5611 -0.0836
vn -0.9215 0.3837 0.0608
vn -0.4755 0.8216 -0.3144
vn -0.4042 0.9143 -0.0238
vn -0.0000 0.9954 -0.0957
vn -0.0000 0.9170 -0.3989
vn -0.4754 0.8217 -0.3144
vn 0.4043 0.9143 -0.0239
vn 0.4754 0.8217 -0.3144
vn 0.8235 0.5611 -0.0836
vn 0.4755 0.8216 -0.3144
vn 0.9215 0.3837 0.0608
vn -0.9215 0.3837 0.0607
vn -0.8660 0.3743 -0.3315
vn -0.9659 0.1938 -0.1716
vn -0.5000 0.6483 -0.5742
vn -0.0000 0.7486 -0.6631
vn 0.5000 0.6483 -0.5743
vn 0.8660 0.3743 -0.3316
vn 0.5000 0.6483 -0.5742
vn 0.9215 0.3837 0.0607
vn 0.9659 0.1938 -0.1716
vn 0.8660 0.3743 -0.3315
vn -0.9659 0.1937 -0.1717
vn -0.8660 0.3742 -0.3315
vn -0.8235 0.1507 -0.5469
vn -0.9215 -0.0140 -0.3882
vn -0.8660 0.3743 -0.3316
vn -0.5000 0.6482 -0.5742
vn -0.4755 0.4112 -0.7777
vn -0.5000 0.6483 -0.5743
vn -0.0000 0.7485 -0.6631
vn -0.0000 0.5066 -0.8622
vn -0.4754 0.4112 -0.7777
vn 0.4754 0.4113 -0.7777
vn 0.5000 0.6482 -0.5742
vn 0.8235 0.1507 -0.5469
vn 0.4755 0.4112 -0.7777
vn 0.8660 0.3742 -0.3315
vn 0.9659 0.1937 -0.1716
vn 0.9215 -0.0140 -0.3882
vn -0.9215 -0.0141 -0.3882
vn -0.7002 -0.0876 -0.7085
vn -0.7902 -0.2228 -0.5709
vn -0.8235 0.1507 -0.5470
vn -0.4043 0.1340 -0.9048
vn -0.7002 -0.0875 -0.7085
vn -0.0000 0.2151 -0.9766
vn 0.4754 0.4112 -0.7777
vn 0.4042 0.1340 -0.9048
vn 0.8235 0.1507 -0.5470
vn 0.7002 -0.0875 -0.7086
vn 0.4043 0.1340 -0.9048
vn 0.9215 -0.0141 -0.3882
vn 0.7902 -0.2228 -0.5709
vn 0.7002 -0.0876 -0.7085
vn -0.7902 -0.2229 -0.5709
vn -0.5085 -0.3170 -0.8006
vn -0.5800 -0.4139 -0.7016
vn -0.7002 -0.0876 -0.7086
vn -0.4043 0.1339 -0.9048
vn -0.2936 -0.1561 -0.9431
vn -0.0000 0.2150 -0.9766
vn -0.0000 -0.0972 -0.9953
vn -0.2935 -0.1561 -0.9431
vn 0.2936 -0.1561 -0.9431
vn 0.4043 0.1339 -0.9048
vn 0.7002 -0.0876 -0.7086
vn 0.5085 -0.3170 -0.8006
vn 0.7902 -0.2229 -0.5709
vn 0.5800 -0.4139 -0.7016
vn -0.5084 -0.3171 -0.8006
vn -0.2672 -0.5152 -0.8143
vn -0.3075 -0.5669 -0.7642
vn -0.5084 -0.3170 -0.8006
vn -0.2936 -0.1562 -0.9431
vn -0.1543 -0.4307 -0.8892
vn -0.2935 -0.1562 -0.9431
vn -0.0000 -0.0973 -0.9953
vn -0.0000 -0.3997 -0.9166
vn 0.2935 -0.1562 -0.9431
vn 0.1543 -0.4307 -0.8892
vn 0.2936 -0.1562 -0.9431
vn 0.5084 -0.3170 -0.8006
vn 0.2672 -0.5152 -0.8143
vn 0.5085 -0.3171 -0.8006
vn 0.3075 -0.5669 -0.7642
vn -0.2672 0.7462 0.6098
vn -0.3075 0.6902 0.6550
vn -0.0001 0.7380 0.6748
vn -0.1542 0.8307 0.5349
vn -0.2671 0.7462 0.6097
vn -0.0000 0.7380 0.6748
vn -0.0000 0.8617 0.5075
vn 0.1542 0.8307 0.5349
vn 0.2672 0.7462 0.6098
vn 0.1543 0.8307 0.5349
vn -0.2672 -0.5153 -0.8143
vn -0.0000 -0.5808 -0.8140
vn -0.1543 -0.4308 -0.8892
vn -0.1542 -0.4308 -0.8892
vn -0.0000 -0.3998 -0.9166
vn -0.0000 -0.5808 -0.8141
vn 0.1542 -0.4307 -0.8892
vn 0.1542 -0.4308 -0.8892
vn 0.2672 -0.5153 -0.8143
vn 0.0001 -0.5808 -0.8140
vn -0.0000 -0.7485 0.6631
vn -0.9215 0.0293 -0.3873
vn -0.8235 -0.1290 -0.5524
vn -0.8660 -0.3609 -0.3460
vn -0.9659 -0.1868 -0.1791
vn -0.8235 -0.1291 -0.5524
vn -0.4755 -0.3803 -0.7933
vn -0.5000 -0.6251 -0.5993
vn -0.8660 -0.3609 -0.3461
vn -0.4754 -0.3803 -0.7933
vn -0.0000 -0.4722 -0.8815
vn -0.0000 -0.7218 -0.6921
vn -0.5000 -0.6252 -0.5993
vn 0.4754 -0.3803 -0.7933
vn 0.5000 -0.6251 -0.5994
vn -0.0000 -0.7219 -0.6920
vn 0.4755 -0.3803 -0.7933
vn 0.8235 -0.1291 -0.5525
vn 0.8660 -0.3609 -0.3461
vn 0.5000 -0.6251 -0.5993
vn 0.8235 -0.1290 -0.5524
vn 0.9215 0.0293 -0.3873
vn 0.9659 -0.1868 -0.1791
vn 0.8660 -0.3609 -0.3460
vn -0.8235 -0.5574 -0.1056
vn -0.9215 -0.3857 0.0456
vn -0.8660 -0.3610 -0.3460
vn -0.4755 -0.8086 -0.3465
vn -0.8235 -0.5574 -0.1057
vn -0.0000 -0.9006 -0.4347
vn -0.4754 -0.8086 -0.3466
vn 0.5000 -0.6252 -0.5993
vn 0.4754 -0.8086 -0.3466
vn 0.8660 -0.3610 -0.3460
vn 0.8235 -0.5574 -0.1057
vn 0.4755 -0.8086 -0.3465
vn 0.9215 -0.3857 0.0456
vn 0.8235 -0.5574 -0.1056
vn -0.9215 -0.3858 0.0457
vn -0.7003 -0.6990 0.1450
vn -0.7902 -0.5508 0.2686
vn -0.4043 -0.9127 -0.0598
vn -0.7002 -0.6991 0.1449
vn -0.4754 -0.8087 -0.3465
vn -0.0000 -0.9909 -0.1348
vn -0.4042 -0.9127 -0.0599
vn 0.4754 -0.8087 -0.3465
vn 0.4043 -0.9127 -0.0599
vn 0.7002 -0.6991 0.1449
vn 0.9215 -0.3858 0.0457
vn 0.7902 -0.5508 0.2686
vn 0.7003 -0.6990 0.1450
vn -0.7002 -0.6990 0.1450
vn -0.5085 -0.7721 0.3812
vn -0.5800 -0.6656 0.4697
vn -0.7002 -0.6991 0.1450
vn -0.2936 -0.9272 0.2324
vn -0.5085 -0.7721 0.3811
vn -0.4042 -0.9127 -0.0598
vn -0.0000 -0.9840 0.1780
vn -0.2935 -0.9273 0.2324
vn 0.4042 -0.9127 -0.0598
vn 0.2936 -0.9273 0.2324
vn 0.4043 -0.9127 -0.0598
vn 0.7002 -0.6991 0.1450
vn 0.5085 -0.7721 0.3811
vn 0.2936 -0.9272 0.2324
vn 0.7002 -0.6990 0.1450
vn 0.5800 -0.6656 0.4697
vn 0.5085 -0.7721 0.3812
vn -0.2809 -0.7521 0.5962
vn -0.5084 -0.7721 0.3812
vn -0.2936 -0.9272 0.2325
vn -0.0774 -0.8689 0.4890
vn -0.2809 -0.7521 0.5961
vn -0.2935 -0.9273 0.2325
vn -0.0774 -0.8689 0.4889
vn 0.2935 -0.9273 0.2325
vn 0.2114 -0.8130 0.5425
vn 0.2936 -0.9272 0.2325
vn 0.5084 -0.7721 0.3812
vn 0.3075 -0.7155 0.6273
vn 0.2115 -0.8130 0.5425
vn -0.2808 -0.7521 0.5962
vn -0.0000 -0.7640 0.6452
vn -0.0774 -0.8688 0.4890
vn -0.0773 -0.8688 0.4890
vn 0.2114 -0.8130 0.5426
vn 0.3074 -0.7155 0.6273
vn -0.0000 0.7219 0.6920
vn -0.0000 0.7218 0.6921
vn -0.0000 0.7218 0.6920
vt 0.188836 0.974756
vt 0.188705 0.975385
vt 0.188705 0.975635
vt 0.188803 0.974943
vt 0.188705 0.974996
vt 0.188873 0.973961
vt 0.188705 0.974505
vt 0.188705 0.973961
vt 0.188705 0.975721
vt 0.188402 0.975817
vt 0.188402 0.976143
vt 0.188402 0.975310
vt 0.188402 0.974670
vt 0.188402 0.973961
vt 0.188402 0.976255
vt 0.187871 0.976144
vt 0.187871 0.976528
vt 0.187871 0.975547
vt 0.187871 0.974795
vt 0.187871 0.973961
vt 0.187871 0.976660
vt 0.187360 0.976279
vt 0.187360 0.976686
vt 0.187360 0.975645
vt 0.187360 0.974847
vt 0.187360 0.973962
vt 0.187360 0.976826
vt 0.186822 0.976295
vt 0.186822 0.976705
vt 0.186821 0.975657
vt 0.186821 0.974853
vt 0.186821 0.973962
vt 0.186822 0.976846
vt 0.186229 0.976199
vt 0.186229 0.976592
vt 0.186229 0.975588
vt 0.186229 0.974816
vt 0.186229 0.973962
vt 0.186229 0.976728
vt 0.185697 0.975984
vt 0.185697 0.976340
vt 0.185697 0.975431
vt 0.185697 0.974734
vt 0.185697 0.973962
vt 0.185697 0.976462
vt 0.185213 0.975688
vt 0.185213 0.975991
vt 0.185213 0.975216
vt 0.185213 0.974621
vt 0.185213 0.973962
vt 0.185213 0.976095
vt 0.184879 0.975411
vt 0.184879 0.975666
vt 0.184879 0.975015
vt 0.184879 0.974515
vt 0.184879 0.973962
vt 0.184879 0.975753
vt 0.184547 0.975132
vt 0.184541 0.975338
vt 0.184551 0.974812
vt 0.184554 0.974409
vt 0.184555 0.973962
vt 0.184519 0.974812
vt 0.184516 0.974409
vt 0.184524 0.975132
vt 0.184529 0.975338
vt 0.184535 0.975408
vt 0.184231 0.974877
vt 0.184220 0.975038
vt 0.184240 0.974627
vt 0.184246 0.974312
vt 0.184248 0.973962
vt 0.184515 0.973962
vt 0.184168 0.974312
vt 0.184166 0.973962
vt 0.184174 0.974627
vt 0.184183 0.974877
vt 0.184195 0.975038
vt 0.184207 0.975093
vt 0.185970 0.986671
vt 0.185971 0.986352
vt 0.186503 0.986461
vt 0.186512 0.986716
vt 0.185971 0.986099
vt 0.186497 0.986259
vt 0.185972 0.985937
vt 0.186492 0.986129
vt 0.185972 0.985881
vt 0.186491 0.986084
vt 0.185965 0.988169
vt 0.185965 0.988113
vt 0.186550 0.987869
vt 0.186552 0.987914
vt 0.185966 0.987950
vt 0.186546 0.987739
vt 0.185966 0.987697
vt 0.186539 0.987537
vt 0.185967 0.987378
vt 0.186531 0.987282
vt 0.185969 0.987025
vt 0.186521 0.986999
vt 0.187634 0.986459
vt 0.187618 0.986306
vt 0.187837 0.986391
vt 0.187857 0.986517
vt 0.187609 0.986207
vt 0.187825 0.986310
vt 0.187605 0.986173
vt 0.187820 0.986283
vt 0.187743 0.987558
vt 0.187740 0.987524
vt 0.187991 0.987393
vt 0.187996 0.987421
vt 0.187730 0.987426
vt 0.187979 0.987312
vt 0.187715 0.987273
vt 0.187960 0.987186
vt 0.187696 0.987080
vt 0.187935 0.987028
vt 0.187674 0.986866
vt 0.187908 0.986852
vt 0.187653 0.986652
vt 0.187067 0.986469
vt 0.187092 0.986685
vt 0.187047 0.986298
vt 0.187034 0.986188
vt 0.187030 0.986150
vt 0.187207 0.987662
vt 0.187211 0.987699
vt 0.187194 0.987552
vt 0.187174 0.987380
vt 0.187149 0.987164
vt 0.187120 0.986925
vt 0.188836 0.973167
vt 0.188803 0.972979
vt 0.188704 0.972288
vt 0.188704 0.972538
vt 0.188704 0.972927
vt 0.188705 0.973417
vt 0.188704 0.972201
vt 0.188402 0.971780
vt 0.188402 0.972106
vt 0.188402 0.972613
vt 0.188402 0.973253
vt 0.188402 0.971667
vt 0.187871 0.971395
vt 0.187871 0.971779
vt 0.187871 0.972375
vt 0.187871 0.973128
vt 0.187871 0.971263
vt 0.187360 0.971237
vt 0.187360 0.971644
vt 0.187360 0.972278
vt 0.187360 0.973076
vt 0.187360 0.971097
vt 0.186821 0.971218
vt 0.186821 0.971628
vt 0.186821 0.972266
vt 0.186821 0.973070
vt 0.186821 0.971077
vt 0.186229 0.971331
vt 0.186229 0.971724
vt 0.186229 0.972336
vt 0.186229 0.973107
vt 0.186229 0.971195
vt 0.185696 0.971584
vt 0.185696 0.971939
vt 0.185697 0.972492
vt 0.185697 0.973189
vt 0.185696 0.971461
vt 0.185213 0.971933
vt 0.185213 0.972236
vt 0.185213 0.972708
vt 0.185213 0.973302
vt 0.185213 0.971933
vt 0.185213 0.971828
vt 0.184878 0.972258
vt 0.184879 0.972512
vt 0.184879 0.972909
vt 0.184879 0.973408
vt 0.184878 0.972170
vt 0.184541 0.972586
vt 0.184547 0.972791
vt 0.184551 0.973111
vt 0.184554 0.973515
vt 0.184516 0.973515
vt 0.184519 0.973111
vt 0.184523 0.972791
vt 0.184529 0.972586
vt 0.184535 0.972515
vt 0.184220 0.972885
vt 0.184231 0.973046
vt 0.184240 0.973297
vt 0.184246 0.973612
vt 0.184168 0.973612
vt 0.184174 0.973297
vt 0.184183 0.973046
vt 0.184194 0.972885
vt 0.184207 0.972830
vt 0.188076 0.986554
vt 0.188088 0.986632
vt 0.188068 0.986504
vt 0.188065 0.986486
vt 0.188171 0.987176
vt 0.188174 0.987193
vt 0.188164 0.987125
vt 0.188152 0.987047
vt 0.188136 0.986949
vt 0.188120 0.986840
vt 0.188164 0.986762
vt 0.188156 0.986710
vt 0.188194 0.986962
vt 0.188186 0.986910
vt 0.188175 0.986836
vt 0.783138 0.973899
vt 0.781887 0.975150
vt 0.783429 0.977821
vt 0.785809 0.975441
vt 0.780178 0.975608
vt 0.780178 0.978692
vt 0.778468 0.975150
vt 0.776926 0.977821
vt 0.777217 0.973899
vt 0.774547 0.975441
vt 0.776759 0.972190
vt 0.773675 0.972190
vt 0.777217 0.970481
vt 0.774547 0.968939
vt 0.778468 0.969230
vt 0.776926 0.966559
vt 0.780178 0.968772
vt 0.780178 0.965688
vt 0.781887 0.969230
vt 0.783429 0.966559
vt 0.783138 0.970481
vt 0.785809 0.968939
vt 0.783596 0.972190
vt 0.786680 0.972190
vt 0.724464 0.061034
vt 0.724899 0.061034
vt 0.725286 0.061674
vt 0.724688 0.061674
vt 0.725058 0.061034
vt 0.725505 0.061674
vt 0.723870 0.061034
vt 0.723870 0.061674
vt 0.723277 0.061034
vt 0.723053 0.061674
vt 0.722842 0.061034
vt 0.722455 0.061674
vt 0.722683 0.061034
vt 0.722236 0.061674
vt 0.725535 0.062480
vt 0.724831 0.062480
vt 0.725792 0.062480
vt 0.723870 0.062480
vt 0.722910 0.062480
vt 0.722206 0.062480
vt 0.721949 0.062480
vt 0.725620 0.063374
vt 0.724881 0.063374
vt 0.725891 0.063374
vt 0.723870 0.063374
vt 0.722860 0.063374
vt 0.722121 0.063374
vt 0.721850 0.063374
vt 0.725535 0.064268
vt 0.724831 0.064268
vt 0.725792 0.064268
vt 0.723870 0.064268
vt 0.722910 0.064268
vt 0.722206 0.064268
vt 0.721949 0.064268
vt 0.725286 0.065075
vt 0.724688 0.065075
vt 0.725505 0.065075
vt 0.723870 0.065075
vt 0.723053 0.065075
vt 0.722455 0.065075
vt 0.722236 0.065075
vt 0.032284 0.040778
vt 0.030982 0.040778
vt 0.029203 0.033662
vt 0.032761 0.040778
vt 0.029203 0.040778
vt 0.027424 0.040778
vt 0.026121 0.040778
vt 0.025645 0.040778
vt 0.093716 0.970102
vt 0.094256 0.970094
vt 0.094733 0.970528
vt 0.093705 0.970542
vt 0.094652 0.970089
vt 0.095485 0.970518
vt 0.094797 0.970087
vt 0.095761 0.970514
vt 0.095102 0.971209
vt 0.093688 0.971228
vt 0.096138 0.971195
vt 0.096517 0.971189
vt 0.095329 0.972070
vt 0.093666 0.972093
vt 0.096547 0.972053
vt 0.096992 0.972047
vt 0.095390 0.973028
vt 0.093642 0.973052
vt 0.096671 0.973010
vt 0.097139 0.973003
vt 0.095281 0.973987
vt 0.093618 0.974010
vt 0.096498 0.973970
vt 0.096944 0.973964
vt 0.095011 0.974855
vt 0.093596 0.974875
vt 0.096046 0.974841
vt 0.096425 0.974836
vt 0.094606 0.975547
vt 0.093578 0.975561
vt 0.095359 0.975536
vt 0.095634 0.975533
vt 0.094108 0.975994
vt 0.093567 0.976002
vt 0.094503 0.975989
vt 0.094648 0.975987
vt 0.093720 0.969950
vt 0.093564 0.976153
vt 0.093883 0.965708
vt 0.095122 0.965519
vt 0.095271 0.964623
vt 0.093716 0.965011
vt 0.096095 0.965256
vt 0.096293 0.964347
vt 0.096450 0.965160
vt 0.096667 0.964246
vt 0.095283 0.963764
vt 0.093796 0.964134
vt 0.096255 0.963502
vt 0.096611 0.963406
vt 0.095156 0.963026
vt 0.093868 0.963343
vt 0.095983 0.962803
vt 0.096286 0.962722
vt 0.094905 0.962482
vt 0.093925 0.962715
vt 0.095506 0.962319
vt 0.095726 0.962260
vt 0.094552 0.962183
vt 0.093962 0.962312
vt 0.094868 0.962098
vt 0.094984 0.962067
vt 0.093975 0.962173
s 1
usemtl lambert1
f 2/1/1 7/2/2 6/3/3 1/4/4
f 2/1/1 8/5/5 7/2/2
f 3/6/6 9/7/7 8/5/5 2/1/1
f 3/6/6 10/8/8 9/7/9
f 4/6/10 12/7/11 11/8/12
f 5/1/13 13/5/14 12/7/11 4/6/15
f 5/1/13 14/2/16 13/5/14
f 1/4/4 15/3/17 14/2/16 5/1/13
f 1/4/4 16/9/18 15/3/17
f 1/4/4 6/3/3 16/9/18
f 7/2/19 18/10/20 17/11/21 6/3/3
f 8/5/5 19/12/22 18/10/20 7/2/23
f 9/7/24 20/13/25 19/12/22 8/5/26
f 10/8/27 21/14/28 20/13/25 9/7/24
f 12/7/29 23/13/30 22/14/31 11/8/32
f 13/5/33 24/12/34 23/13/35 12/7/29
f 14/2/36 25/10/37 24/12/34 13/5/14
f 15/3/17 26/11/38 25/10/37 14/2/39
f 16/9/40 27/15/41 26/11/38 15/3/42
f 6/3/43 17/11/44 27/15/41 16/9/40
f 18/10/45 29/16/46 28/17/47 17/11/48
f 19/12/49 30/18/50 29/16/51 18/10/52
f 20/13/53 31/19/54 30/18/55 19/12/49
f 21/14/56 32/20/57 31/19/58 20/13/53
f 23/13/59 34/19/60 33/20/61 22/14/62
f 24/12/63 35/18/64 34/19/65 23/13/59
f 25/10/66 36/16/67 35/18/68 24/12/63
f 26/11/69 37/17/70 36/16/71 25/10/66
f 27/15/72 38/21/73 37/17/74 26/11/69
f 17/11/48 28/17/75 38/21/73 27/15/72
f 28/17/47 29/16/51 40/22/76 39/23/77
f 29/16/51 30/18/50 41/24/78 40/22/76
f 30/18/55 31/19/54 42/25/79 41/24/78
f 31/19/58 32/20/80 43/26/81 42/25/79
f 33/20/82 34/19/65 45/25/83 44/26/84
f 34/19/65 35/18/68 46/24/85 45/25/83
f 35/18/68 36/16/67 47/22/86 46/24/85
f 36/16/71 37/17/70 48/23/87 47/22/86
f 37/17/74 38/21/88 49/27/89 48/23/87
f 38/21/88 28/17/47 39/23/77 49/27/89
f 39/23/90 40/22/91 51/28/92 50/29/93
f 40/22/91 41/24/94 52/30/95 51/28/96
f 41/24/94 42/25/97 53/31/98 52/30/99
f 42/25/97 43/26/100 54/32/101 53/31/102
f 44/26/103 45/25/104 56/31/105 55/32/106
f 45/25/104 46/24/107 57/30/108 56/31/109
f 46/24/107 47/22/110 58/28/111 57/30/112
f 47/22/110 48/23/113 59/29/114 58/28/115
f 48/23/113 49/27/116 60/33/117 59/29/118
f 49/27/116 39/23/90 50/29/119 60/33/120
f 50/29/121 51/28/122 62/34/123 61/35/124
f 51/28/125 52/30/126 63/36/127 62/34/128
f 52/30/129 53/31/130 64/37/131 63/36/132
f 53/31/133 54/32/134 65/38/135 64/37/131
f 55/32/136 56/31/137 67/37/138 66/38/139
f 56/31/140 57/30/141 68/36/142 67/37/138
f 57/30/143 58/28/144 69/34/145 68/36/146
f 58/28/147 59/29/148 70/35/149 69/34/150
f 59/29/151 60/33/152 71/39/153 70/35/149
f 60/33/152 50/29/154 61/35/124 71/39/153
f 61/35/155 62/34/156 73/40/157 72/41/158
f 62/34/159 63/36/160 74/42/161 73/40/162
f 63/36/163 64/37/164 75/43/165 74/42/166
f 64/37/167 65/38/168 76/44/169 75/43/170
f 66/38/171 67/37/172 78/43/173 77/44/174
f 67/37/175 68/36/176 79/42/177 78/43/178
f 68/36/179 69/34/180 80/40/181 79/42/182
f 69/34/183 70/35/184 81/41/185 80/40/186
f 70/35/187 71/39/188 82/45/189 81/41/190
f 71/39/188 61/35/191 72/41/192 82/45/189
f 72/41/158 73/40/157 84/46/193 83/47/194
f 73/40/157 74/42/166 85/48/195 84/46/196
f 74/42/166 75/43/165 86/49/197 85/48/198
f 75/43/170 76/44/199 87/50/200 86/49/201
f 78/43/178 79/42/177 89/48/202 88/49/203
f 79/42/177 80/40/186 90/46/204 89/48/202
f 80/40/186 81/41/185 91/47/205 90/46/204
f 81/41/190 82/45/206 92/51/207 91/47/205
f 82/45/206 72/41/192 83/47/208 92/51/209
f 83/47/194 84/46/193 94/52/210 93/53/211
f 84/46/196 85/48/212 95/54/213 94/52/210
f 85/48/214 86/49/197 96/55/215 95/54/216
f 86/49/197 87/50/200 97/56/217 96/55/215
f 88/49/203 89/48/218 99/54/219 98/55/220
f 89/48/221 90/46/222 100/52/223 99/54/224
f 90/46/222 91/47/225 101/53/226 100/52/227
f 91/47/205 92/51/207 102/57/228 101/53/229
f 92/51/209 83/47/208 93/53/230 102/57/231
f 93/53/211 94/52/210 104/58/232 103/59/233
f 94/52/210 95/54/234 105/60/235 104/58/236
f 95/54/213 96/55/215 106/61/237 105/60/235
f 96/55/215 97/56/217 107/62/238 106/61/237
f 98/55/220 99/54/219 110/63/239 109/64/240
f 99/54/224 100/52/227 111/65/241 110/63/239
f 100/52/227 101/53/242 112/66/243 111/65/244
f 101/53/229 102/57/231 113/67/245 112/66/246
f 102/57/247 93/53/230 103/59/233 113/67/245
f 103/59/248 104/58/232 115/68/249 114/69/250
f 104/58/236 105/60/235 116/70/251 115/68/252
f 105/60/235 106/61/237 117/71/253 116/70/254
f 106/61/237 107/62/255 118/72/256 117/71/253
f 108/73/257 109/64/258 120/74/259 119/75/260
f 109/64/261 110/63/239 121/76/262 120/74/263
f 110/63/264 111/65/265 122/77/266 121/76/267
f 111/65/241 112/66/268 123/78/269 122/77/270
f 112/66/243 113/67/245 124/79/271 123/78/272
f 113/67/273 103/59/233 114/69/274 124/79/271
f 114/80/250 115/81/252 126/82/275 125/83/276
f 115/81/252 116/84/251 127/85/277 126/82/278
f 116/84/251 117/86/253 128/87/279 127/85/280
f 117/86/253 118/88/281 129/89/282 128/87/283
f 119/90/260 120/91/259 131/92/284 130/93/285
f 120/91/286 121/94/262 132/95/287 131/92/288
f 121/94/267 122/96/266 133/97/289 132/95/290
f 122/96/266 123/98/291 134/99/292 133/97/293
f 123/98/294 124/100/271 135/101/295 134/99/296
f 124/100/271 114/80/297 125/83/276 135/101/298
f 158/102/299 159/103/300 137/104/301 136/105/302
f 159/103/303 160/106/304 138/107/305 137/104/306
f 160/106/304 161/108/307 139/109/308 138/107/305
f 162/110/309 163/111/310 141/112/311 140/113/312
f 163/111/313 164/114/314 142/115/315 141/112/316
f 164/114/314 165/116/317 143/117/318 142/115/315
f 165/116/319 166/118/320 144/119/321 143/117/322
f 166/118/323 167/120/324 145/121/325 144/119/321
f 157/122/326 145/121/327 167/120/328
f 125/83/276 126/82/329 147/123/330 146/124/331
f 126/82/329 127/85/332 148/125/333 147/123/330
f 127/85/332 128/87/334 149/126/335 148/125/333
f 128/87/336 129/89/337 150/127/338 149/126/335
f 130/93/339 131/92/284 152/128/340 151/129/341
f 131/92/284 132/95/287 153/130/342 152/128/343
f 132/95/290 133/97/289 154/131/344 153/130/345
f 133/97/289 134/99/292 155/132/346 154/131/347
f 134/99/296 135/101/295 156/133/348 155/132/349
f 135/101/295 125/83/276 146/124/350 156/133/348
f 146/124/331 147/123/330 158/102/351 157/122/326
f 147/123/352 148/125/353 159/103/300 158/102/354
f 148/125/333 149/126/355 160/106/304 159/103/300
f 149/126/335 150/127/356 161/108/307 160/106/357
f 151/129/358 152/128/343 163/111/359 162/110/309
f 152/128/343 153/130/342 164/114/360 163/111/361
f 153/130/342 154/131/344 165/116/362 164/114/363
f 154/131/347 155/132/346 166/118/364 165/116/319
f 155/132/349 156/133/348 167/120/365 166/118/366
f 156/133/367 146/124/331 157/122/326 167/120/368
f 136/105/369 145/121/327 157/122/370
f 136/105/371 157/122/326 158/102/299
f 5/1/13 4/6/15 3/6/372 2/1/1
f 1/4/4 5/1/13 2/1/1
f 168/134/373 171/135/374 170/136/375 169/137/376
f 168/134/373 169/137/376 172/138/377
f 3/6/372 168/134/373 172/138/377 173/139/378
f 3/6/6 173/139/378 10/8/8
f 4/6/10 11/8/12 174/139/379
f 175/134/380 4/6/10 174/139/381 176/138/382
f 175/134/380 176/138/382 177/137/383
f 171/135/374 175/134/380 177/137/383 178/136/384
f 171/135/374 178/136/384 179/140/385
f 171/135/374 179/140/385 170/136/375
f 169/137/386 170/136/375 181/141/387 180/142/388
f 172/138/377 169/137/389 180/142/388 182/143/390
f 173/139/391 172/138/392 182/143/390 183/144/393
f 10/8/27 173/139/391 183/144/394 21/14/28
f 174/139/395 11/8/32 22/14/31 184/144/396
f 176/138/397 174/139/395 184/144/396 185/143/398
f 177/137/399 176/138/382 185/143/398 186/142/400
f 178/136/384 177/137/401 186/142/400 187/141/402
f 179/140/403 178/136/404 187/141/405 188/145/406
f 170/136/407 179/140/403 188/145/406 181/141/387
f 180/142/408 181/141/409 190/146/410 189/147/411
f 182/143/412 180/142/408 189/147/413 191/148/414
f 183/144/415 182/143/412 191/148/416 192/149/417
f 21/14/56 183/144/415 192/149/418 32/20/57
f 184/144/419 22/14/62 33/20/61 193/149/420
f 185/143/421 184/144/419 193/149/422 194/148/423
f 186/142/424 185/143/421 194/148/425 195/147/426
f 187/141/427 186/142/424 195/147/428 196/146/429
f 188/145/430 187/141/427 196/146/431 197/150/432
f 181/141/409 188/145/430 197/150/432 190/146/433
f 190/146/410 199/151/434 198/152/435 189/147/411
f 189/147/413 198/152/435 200/153/436 191/148/414
f 191/148/414 200/153/436 201/154/437 192/149/417
f 192/149/417 201/154/437 43/26/81 32/20/80
f 33/20/82 44/26/84 202/154/438 193/149/420
f 193/149/422 202/154/438 203/153/439 194/148/423
f 194/148/425 203/153/439 204/152/440 195/147/426
f 195/147/426 204/152/440 205/151/441 196/146/429
f 196/146/429 205/151/441 206/155/442 197/150/443
f 197/150/443 206/155/442 199/151/434 190/146/433
f 199/151/444 208/156/445 207/157/446 198/152/447
f 198/152/447 207/157/448 209/158/449 200/153/450
f 200/153/450 209/158/451 210/159/452 201/154/453
f 201/154/453 210/159/454 54/32/455 43/26/100
f 44/26/103 55/32/456 211/159/457 202/154/458
f 202/154/458 211/159/459 212/158/460 203/153/461
f 203/153/461 212/158/462 213/157/463 204/152/464
f 204/152/464 213/157/465 214/156/466 205/151/467
f 205/151/467 214/156/468 215/160/469 206/155/470
f 206/155/470 215/160/471 208/156/472 199/151/444
f 208/156/473 217/161/474 216/162/475 207/157/476
f 207/157/477 216/162/478 218/163/479 209/158/480
f 209/158/481 218/163/482 219/164/483 210/159/484
f 210/159/485 219/164/483 65/38/135 54/32/134
f 55/32/136 66/38/139 220/164/486 211/159/487
f 211/159/488 220/164/486 221/163/489 212/158/490
f 212/158/491 221/163/492 222/162/493 213/157/494
f 213/157/495 222/162/496 223/161/497 214/156/498
f 214/156/499 223/161/497 224/165/500 215/160/501
f 215/160/501 224/165/500 217/161/474 208/156/502
f 217/161/503 226/166/504 225/167/505 216/162/506
f 216/162/507 225/167/508 227/168/509 218/163/510
f 218/163/511 227/168/512 228/169/513 219/164/514
f 219/164/515 228/169/516 76/44/169 65/38/168
f 66/38/171 77/44/174 229/169/517 220/164/518
f 220/164/519 229/169/520 230/168/521 221/163/522
f 221/163/523 230/168/524 231/167/525 222/162/526
f 222/162/527 231/167/528 232/166/529 223/161/530
f 223/161/531 232/166/532 233/170/533 224/165/534
f 224/165/534 233/170/533 226/166/535 217/161/536
f 226/166/504 235/171/537 234/172/538 225/167/505
f 225/167/505 234/172/539 236/173/540 227/168/512
f 227/168/512 236/173/541 237/174/542 228/169/513
f 228/169/516 237/174/543 87/50/200 76/44/199
f 229/169/520 239/174/544 238/173/545 230/168/521
f 230/168/521 238/173/545 240/172/546 231/167/528
f 231/167/528 240/172/546 241/175/547 232/166/529
f 232/166/532 241/175/547 242/176/548 233/170/549
f 233/170/549 242/176/548 235/171/550 226/166/535
f 235/171/537 244/177/551 243/178/552 234/172/538
f 234/172/539 243/178/552 245/179/553 236/173/554
f 236/173/555 245/179/556 246/180/557 237/174/542
f 237/174/542 246/180/557 97/56/558 87/50/200
f 239/174/544 248/180/559 247/179/560 238/173/561
f 238/173/562 247/179/563 249/178/564 240/172/565
f 240/172/565 249/178/566 250/177/567 241/175/547
f 241/175/547 250/177/568 251/181/569 242/176/548
f 242/176/570 251/181/571 244/177/572 235/171/550
f 244/177/551 253/182/573 252/183/574 243/178/552
f 243/178/552 252/183/575 254/184/576 245/179/553
f 245/179/577 254/184/576 255/185/578 246/180/557
f 246/180/557 255/185/578 107/62/255 97/56/217
f 248/180/559 257/186/579 256/187/580 247/179/560
f 247/179/563 256/187/580 258/188/581 249/178/564
f 249/178/566 258/188/582 259/189/583 250/177/584
f 250/177/568 259/189/585 260/190/586 251/181/571
f 251/181/587 260/190/586 253/182/573 244/177/572
f 253/182/588 262/191/589 261/192/590 252/183/574
f 252/183/575 261/192/591 263/193/592 254/184/576
f 254/184/576 263/193/593 264/194/594 255/185/578
f 255/185/578 264/194/594 118/72/256 107/62/255
f 108/73/257 119/75/260 265/195/595 257/186/596
f 257/186/597 265/195/598 266/196/599 256/187/580
f 256/187/600 266/196/601 267/197/602 258/188/581
f 258/188/603 267/197/604 268/198/605 259/189/585
f 259/189/585 268/198/606 269/199/607 260/190/586
f 260/190/608 269/199/607 262/191/609 253/182/573
f 262/80/589 271/83/610 270/82/611 261/81/591
f 261/81/591 270/82/612 272/85/613 263/84/614
f 263/84/614 272/85/615 273/87/616 264/86/594
f 264/86/594 273/87/617 129/89/282 118/88/281
f 119/90/260 130/93/618 274/92/619 265/91/620
f 265/91/620 274/92/621 275/95/622 266/94/599
f 266/94/601 275/95/623 276/97/624 267/96/602
f 267/96/604 276/97/625 277/99/626 268/98/627
f 268/98/628 277/99/629 278/101/630 269/100/607
f 269/100/607 278/101/630 271/83/610 262/80/631
f 279/102/632 282/105/633 281/104/634 280/103/635
f 280/103/635 281/104/636 284/107/637 283/106/638
f 283/106/639 284/107/637 139/109/308 161/108/307
f 162/110/309 140/113/312 286/112/640 285/111/641
f 285/111/642 286/112/643 288/115/644 287/114/645
f 287/114/645 288/115/644 290/117/646 289/116/647
f 289/116/648 290/117/649 292/119/650 291/118/651
f 291/118/652 292/119/650 294/121/653 293/120/654
f 295/122/655 293/120/656 294/121/657
f 271/83/610 297/124/658 296/123/659 270/82/660
f 270/82/660 296/123/661 298/125/662 272/85/663
f 272/85/663 298/125/662 299/126/664 273/87/665
f 273/87/666 299/126/664 150/127/338 129/89/337
f 130/93/667 151/129/341 300/128/668 274/92/619
f 274/92/619 300/128/668 301/130/669 275/95/622
f 275/95/623 301/130/669 302/131/670 276/97/624
f 276/97/624 302/131/671 303/132/672 277/99/626
f 277/99/629 303/132/672 304/133/673 278/101/674
f 278/101/674 304/133/673 297/124/675 271/83/610
f 297/124/658 295/122/655 279/102/632 296/123/659
f 296/123/661 279/102/632 280/103/676 298/125/677
f 298/125/662 280/103/676 283/106/638 299/126/664
f 299/126/664 283/106/639 161/108/307 150/127/678
f 151/129/679 162/110/680 285/111/681 300/128/682
f 300/128/668 285/111/683 287/114/684 301/130/669
f 301/130/669 287/114/685 289/116/686 302/131/670
f 302/131/671 289/116/648 291/118/687 303/132/672
f 303/132/688 291/118/687 293/120/689 304/133/673
f 304/133/690 293/120/691 295/122/655 297/124/658
f 282/105/692 295/122/693 294/121/657
f 282/105/692 279/102/694 295/122/655
f 175/134/380 168/134/373 3/6/372 4/6/15
f 171/135/374 168/134/373 175/134/380
f 136/105/695 137/104/696 306/200/697 305/201/698
f 137/104/696 138/107/305 307/202/699 306/200/700
f 138/107/701 139/109/702 308/203/703 307/202/699
f 140/113/704 141/112/705 310/204/706 309/205/707
f 141/112/708 142/115/709 311/206/710 310/204/706
f 142/115/711 143/117/712 312/207/713 311/206/714
f 143/117/712 144/119/715 313/208/716 312/207/717
f 144/119/715 145/121/327 314/209/718 313/208/716
f 145/121/327 136/105/369 305/201/698 314/209/718
f 281/104/634 282/105/719 315/201/720 316/200/721
f 284/107/637 281/104/634 316/200/722 317/202/723
f 139/109/702 284/107/637 317/202/723 308/203/703
f 286/112/724 140/113/704 309/205/707 318/204/725
f 288/115/726 286/112/727 318/204/725 319/206/728
f 290/117/729 288/115/726 319/206/730 320/207/731
f 292/119/732 290/117/729 320/207/731 321/208/733
f 294/121/653 292/119/732 321/208/733 322/209/734
f 282/105/692 294/121/657 322/209/734 315/201/720
f 305/201/735 306/200/736 323/210/737
f 306/200/736 307/202/738 324/211/739 323/210/740
f 307/202/738 308/203/741 324/211/739
f 309/205/742 310/204/743 325/212/744
f 310/204/743 311/206/745 326/213/746 325/212/744
f 311/206/745 312/207/717 326/213/746
f 312/207/717 313/208/747 327/214/748 326/213/746
f 313/208/747 314/209/718 327/214/748
f 314/209/718 305/201/735 323/210/737 327/214/748
f 316/200/749 315/201/750 328/210/751
f 317/202/752 316/200/749 328/210/753 324/211/739
f 308/203/741 317/202/752 324/211/739
f 318/204/754 309/205/742 325/212/744
f 319/206/755 318/204/756 325/212/744 329/213/757
f 320/207/758 319/206/759 329/213/757
f 321/208/760 320/207/758 329/213/757 330/214/761
f 322/209/734 321/208/760 330/214/761
f 315/201/762 322/209/763 330/214/764 328/210/751
f 329/213/757 325/212/765 331/214/766 330/214/761
f 325/212/765 326/213/746 327/214/748 331/214/766
f 331/214/766 327/214/767 323/210/737 324/211/768
f 330/214/769 331/214/766 324/211/768 328/210/770
f 332/215/771 333/216/772 345/217/773 344/218/774
f 333/216/772 334/219/775 346/220/776 345/217/773
f 334/219/775 335/221/777 347/222/778 346/220/776
f 335/221/777 336/223/779 348/224/780 347/222/778
f 336/223/779 337/225/781 349/226/782 348/224/780
f 337/225/781 338/227/783 350/228/784 349/226/782
f 338/227/783 339/229/785 351/230/786 350/228/784
f 339/229/785 340/231/787 352/232/788 351/230/786
f 340/231/787 341/233/789 353/234/790 352/232/788
f 341/233/789 342/235/791 354/236/792 353/234/790
f 342/235/791 343/237/793 355/238/794 354/236/792
f 343/237/793 332/215/771 344/218/774 355/238/794
f 344/239/774 345/240/773 357/241/795 356/242/796
f 345/240/773 346/243/776 358/244/797 357/241/795
f 346/243/776 347/240/778 359/241/798 358/244/797
f 347/240/778 348/239/780 360/242/799 359/241/798
f 348/239/780 349/245/782 361/246/800 360/242/799
f 349/245/782 350/247/784 362/248/801 361/246/800
f 350/247/784 351/249/786 363/250/802 362/248/801
f 351/249/786 352/251/788 364/252/803 363/250/802
f 352/251/788 353/249/790 365/250/804 364/252/803
f 353/249/790 354/247/792 366/248/805 365/250/804
f 354/247/792 355/245/794 367/246/806 366/248/805
f 355/245/794 344/239/774 356/242/796 367/246/806
f 356/242/796 357/241/795 369/253/807 368/254/808
f 357/241/795 358/244/797 370/255/809 369/253/807
f 358/244/797 359/241/798 371/253/810 370/255/809
f 359/241/798 360/242/799 372/254/811 371/253/810
f 360/242/799 361/246/800 373/256/812 372/254/811
f 361/246/800 362/248/801 374/257/813 373/256/812
f 362/248/801 363/250/802 375/258/814 374/257/813
f 363/250/802 364/252/803 376/259/815 375/258/814
f 364/252/803 365/250/804 377/258/816 376/259/815
f 365/250/804 366/248/805 378/257/817 377/258/816
f 366/248/805 367/246/806 379/256/818 378/257/817
f 367/246/806 356/242/796 368/254/808 379/256/818
f 368/254/808 369/253/807 381/260/819 380/261/820
f 369/253/807 370/255/809 382/262/821 381/260/819
f 370/255/809 371/253/810 383/260/822 382/262/821
f 371/253/810 372/254/811 384/261/823 383/260/822
f 372/254/811 373/256/812 385/263/824 384/261/823
f 373/256/812 374/257/813 386/264/825 385/263/824
f 374/257/813 375/258/814 387/265/826 386/264/825
f 375/258/814 376/259/815 388/266/827 387/265/826
f 376/259/815 377/258/816 389/265/828 388/266/827
f 377/258/816 378/257/817 390/264/829 389/265/828
f 378/257/817 379/256/818 391/263/830 390/264/829
f 379/256/818 368/254/808 380/261/820 391/263/830
f 380/261/820 381/260/819 393/267/831 392/268/832
f 381/260/819 382/262/821 394/269/833 393/267/831
f 382/262/821 383/260/822 395/267/834 394/269/833
f 383/260/822 384/261/823 396/268/835 395/267/834
f 384/261/823 385/263/824 397/270/836 396/268/835
f 385/263/824 386/264/825 398/271/837 397/270/836
f 386/264/825 387/265/826 399/272/838 398/271/837
f 387/265/826 388/266/827 400/273/839 399/272/838
f 388/266/827 389/265/828 401/272/840 400/273/839
f 389/265/828 390/264/829 402/271/841 401/272/840
f 390/264/829 391/263/830 403/270/842 402/271/841
f 391/263/830 380/261/820 392/268/832 403/270/842
f 392/268/832 393/267/831 405/274/843 404/275/844
f 393/267/831 394/269/833 406/276/845 405/274/843
f 394/269/833 395/267/834 407/274/846 406/276/845
f 395/267/834 396/268/835 408/275/847 407/274/846
f 396/268/835 397/270/836 409/277/848 408/275/847
f 397/270/836 398/271/837 410/278/849 409/277/848
f 398/271/837 399/272/838 411/279/850 410/278/849
f 399/272/838 400/273/839 412/280/851 411/279/850
f 400/273/839 401/272/840 413/279/852 412/280/851
f 401/272/840 402/271/841 414/278/853 413/279/852
f 402/271/841 403/270/842 415/277/854 414/278/853
f 403/270/842 392/268/832 404/275/844 415/277/854
f 333/281/772 332/282/771 416/283/855
f 334/284/775 333/281/772 416/283/855
f 335/281/777 334/284/775 416/283/855
f 336/282/779 335/281/777 416/283/855
f 337/285/781 336/282/779 416/283/855
f 338/286/783 337/285/781 416/283/855
f 339/287/785 338/286/783 416/283/855
f 340/288/787 339/287/785 416/283/855
f 341/287/789 340/288/787 416/283/855
f 342/286/791 341/287/789 416/283/855
f 343/285/793 342/286/791 416/283/855
f 332/282/771 343/285/793 416/283/855
f 417/289/856 418/290/857 425/291/858 424/292/859
f 418/290/857 419/293/860 426/294/861 425/291/862
f 419/293/860 420/295/863 427/296/864 426/294/865
f 420/295/863 421/293/866 428/294/867 427/296/864
f 421/293/868 422/290/869 429/291/870 428/294/871
f 422/290/869 423/289/872 430/292/873 429/291/870
f 424/292/874 425/291/858 432/297/875 431/298/876
f 425/291/858 426/294/861 433/299/877 432/297/875
f 426/294/861 427/296/878 434/300/879 433/299/877
f 427/296/878 428/294/871 435/299/880 434/300/879
f 428/294/871 429/291/881 436/297/882 435/299/880
f 429/291/881 430/292/873 437/298/883 436/297/882
f 431/298/876 432/297/875 439/301/884 438/302/885
f 432/297/875 433/299/877 440/303/886 439/301/884
f 433/299/887 434/300/888 441/304/889 440/303/890
f 434/300/888 435/299/891 442/303/892 441/304/889
f 435/299/880 436/297/882 443/301/893 442/303/894
f 436/297/882 437/298/883 444/302/895 443/301/893
f 438/302/896 439/301/884 446/305/897 445/306/898
f 439/301/884 440/303/886 447/307/899 446/305/897
f 440/303/890 441/304/889 448/308/900 447/307/899
f 441/304/889 442/303/892 449/307/901 448/308/900
f 442/303/894 443/301/893 450/305/902 449/307/903
f 443/301/893 444/302/904 451/306/905 450/305/906
f 445/306/907 446/305/908 453/309/909 452/310/910
f 446/305/911 447/307/912 454/311/913 453/309/909
f 447/307/914 448/308/915 455/312/916 454/311/917
f 448/308/915 449/307/901 456/311/918 455/312/916
f 449/307/919 450/305/902 457/309/920 456/311/921
f 450/305/922 451/306/923 458/310/924 457/309/920
f 452/310/925 453/309/909 460/313/926 459/314/927
f 453/309/928 454/311/913 461/315/929 460/313/930
f 454/311/917 455/312/916 462/316/931 461/315/929
f 455/312/916 456/311/932 463/315/933 462/316/931
f 456/311/921 457/309/934 464/313/935 463/315/936
f 457/309/920 458/310/937 465/314/938 464/313/939
f 459/314/940 460/313/926 467/317/941 466/318/942
f 460/313/943 461/315/944 468/319/945 467/317/941
f 461/315/929 462/316/946 469/320/947 468/319/948
f 462/316/946 463/315/936 470/319/949 469/320/947
f 463/315/950 464/313/951 471/317/952 470/319/949
f 464/313/939 465/314/953 472/318/954 471/317/952
f 466/318/942 467/317/955 474/321/956 473/322/957
f 467/317/958 468/319/959 475/323/960 474/321/956
f 468/319/961 469/320/962 476/324/963 475/323/960
f 469/320/962 470/319/964 477/323/965 476/324/963
f 470/319/966 471/317/967 478/321/968 477/323/965
f 471/317/969 472/318/954 479/322/970 478/321/968
f 418/290/971 417/289/972 480/325/973
f 419/293/974 418/290/975 480/325/976
f 420/295/977 419/293/974 480/325/976
f 421/293/978 420/295/977 480/325/976
f 422/290/979 421/293/980 480/325/976
f 423/289/872 422/290/979 480/325/976
f 473/322/957 474/321/981 481/326/982
f 474/321/981 475/323/983 481/326/982
f 475/323/984 476/324/985 481/326/986
f 476/324/985 477/323/987 481/326/986
f 477/323/988 478/321/989 481/326/982
f 478/321/989 479/322/970 481/326/990
f 437/298/991 430/292/991 424/292/991 431/298/991
f 444/302/991 437/298/991 431/298/991 438/302/991
f 451/306/991 444/302/991 438/302/991 445/306/991
f 458/310/991 451/306/991 445/306/991 452/310/991
f 465/314/991 458/310/991 452/310/991 459/314/991
f 472/318/991 465/314/991 459/314/991 466/318/991
f 479/322/991 472/318/991 466/318/991 473/322/991
f 430/292/991 423/289/991 417/289/991 424/292/991
f 417/289/991 423/289/991 480/325/991
f 479/322/991 473/322/991 481/326/991
f 482/327/992 483/328/993 490/329/994 489/330/995
f 483/328/996 484/331/997 491/332/998 490/329/999
f 484/331/1000 485/333/1001 492/334/1002 491/332/1003
f 485/333/1001 486/331/1004 493/332/1005 492/334/1006
f 486/331/1007 487/328/1008 494/329/1009 493/332/1010
f 487/328/1011 488/327/1012 495/330/1013 494/329/1014
f 489/330/995 490/329/994 497/335/1015 496/336/1016
f 490/329/1017 491/332/998 498/337/1018 497/335/1019
f 491/332/1003 492/334/1002 499/338/1020 498/337/1021
f 492/334/1006 493/332/1022 500/337/1023 499/338/1020
f 493/332/1010 494/329/1024 501/335/1025 500/337/1026
f 494/329/1014 495/330/1013 502/336/1027 501/335/1028
f 496/336/1029 497/335/1015 504/339/1030 503/340/1031
f 497/335/1015 498/337/1018 505/341/1032 504/339/1033
f 498/337/1034 499/338/1020 506/342/1035 505/341/1036
f 499/338/1020 500/337/1037 507/341/1038 506/342/1035
f 500/337/1026 501/335/1028 508/339/1039 507/341/1038
f 501/335/1028 502/336/1040 509/340/1041 508/339/1042
f 503/340/1031 504/339/1043 511/343/1044 510/344/1045
f 504/339/1046 505/341/1032 512/345/1047 511/343/1048
f 505/341/1049 506/342/1035 513/346/1050 512/345/1051
f 506/342/1035 507/341/1052 514/345/1053 513/346/1050
f 507/341/1054 508/339/1055 515/343/1056 514/345/1057
f 508/339/1058 509/340/1041 516/344/1059 515/343/1060
f 510/344/1045 511/343/1044 518/347/1061 517/348/1061
f 511/343/1062 512/345/1063 519/349/1064 518/347/1065
f 512/345/1066 513/346/1050 520/350/1067 519/349/1067
f 513/346/1050 514/345/1068 521/349/1069 520/350/1067
f 514/345/1070 515/343/1071 522/347/1069 521/349/1069
f 515/343/1060 516/344/1059 523/348/1072 522/347/1073
f 517/348/1074 518/347/1074 524/351/1075
f 518/347/1074 519/349/1076 524/351/1075
f 519/349/1076 520/350/1076 524/351/1075
f 520/350/1077 521/349/1078 524/351/1075
f 521/349/1078 522/347/1078 524/351/1075
f 522/347/1078 523/348/1079 524/351/1075
f 495/330/1080 488/327/1080 482/327/1080 489/330/1080
f 502/336/1081 495/330/1081 489/330/1081 496/336/1081
f 509/340/1081 502/336/1081 496/336/1081 503/340/1081
f 516/344/1081 509/340/1081 503/340/1081 510/344/1081
f 523/348/1082 516/344/1082 510/344/1082 517/348/1082
f 523/348/1081 517/348/1081 524/351/1081
